<?xml version="1.0" encoding="UTF-8"?>
<svg xmlns="http://www.w3.org/2000/svg" xmlns:xlink="http://www.w3.org/1999/xlink" width="215" height="104" viewBox="0 0 215 104">
<path fill-rule="nonzero" fill="rgb(100%, 100%, 100%)" fill-opacity="1" d="M 37.453125 29.078125 C 37.480469 28.855469 37.496094 28.625 37.496094 28.390625 C 37.496094 28.261719 37.496094 28.109375 37.480469 27.941406 C 39.476562 27.910156 41.222656 26.476562 41.222656 24.824219 C 41.222656 23.984375 40.675781 23.351562 40.367188 22.972656 C 40.433594 22.957031 40.503906 22.941406 40.574219 22.925781 C 40.867188 23.179688 41.695312 24.078125 41.695312 25.21875 C 41.695312 27.199219 39.714844 29.039062 37.453125 29.078125 M 35.445312 22.179688 C 35.410156 21.960938 35.324219 21.761719 35.195312 21.589844 C 35.203125 21.386719 35.285156 21.191406 35.613281 21.351562 C 35.4375 21.53125 35.570312 21.851562 35.570312 21.851562 C 35.570312 21.851562 35.933594 21.683594 35.855469 21.445312 C 36.390625 21.574219 36.007812 22.289062 35.445312 22.179688 M 34.984375 23.199219 C 34.910156 22.902344 34.761719 22.597656 34.566406 22.367188 C 34.390625 22.160156 34.101562 21.914062 33.707031 21.914062 C 33.527344 21.914062 33.230469 21.996094 33.039062 22.078125 C 32.96875 21.949219 32.828125 21.636719 32.828125 21.496094 C 32.828125 21.351562 33.074219 21.203125 33.542969 21.203125 C 34.574219 21.203125 35.191406 21.667969 35.191406 22.449219 C 35.191406 22.726562 35.082031 22.976562 34.984375 23.199219 M 37.632812 36.496094 C 37.753906 36.496094 37.8125 36.515625 37.882812 36.542969 C 38.179688 37.351562 39.324219 38.875 39.371094 38.941406 L 39.382812 38.953125 L 39.398438 38.949219 C 39.679688 38.90625 40.394531 38.796875 40.996094 38.796875 L 41.011719 38.796875 C 41.074219 38.796875 41.148438 38.796875 41.195312 38.84375 C 41.234375 38.882812 41.253906 38.949219 41.253906 39.046875 C 41.253906 39.195312 41.191406 39.453125 41.113281 39.5625 C 40.90625 39.332031 40.5625 39.230469 40.019531 39.230469 C 39.855469 39.230469 39.660156 39.277344 39.554688 39.304688 L 39.511719 39.316406 L 39.464844 39.328125 L 39.777344 39.644531 C 40.265625 40.128906 40.683594 40.546875 40.683594 40.828125 C 40.683594 40.996094 40.519531 41.214844 40.371094 41.3125 C 40.335938 40.800781 39.820312 40.117188 39.316406 39.734375 L 39.273438 39.699219 L 39.265625 39.882812 C 39.261719 40.003906 39.25 40.1875 39.25 40.382812 C 39.25 41.355469 39.148438 41.503906 38.8125 41.503906 C 38.761719 41.503906 38.683594 41.488281 38.632812 41.46875 C 38.824219 41.234375 38.898438 40.925781 38.898438 40.382812 L 38.894531 40.128906 L 38.890625 39.929688 C 38.890625 39.703125 38.914062 39.539062 38.933594 39.40625 L 38.941406 39.332031 L 38.890625 39.324219 C 38.730469 39.304688 38.4375 39.261719 38.214844 39.261719 C 37.734375 39.261719 37.40625 39.308594 37.171875 39.527344 C 37.015625 39.402344 36.855469 39.1875 36.855469 39.050781 C 36.855469 38.847656 36.980469 38.828125 37.148438 38.828125 C 37.230469 38.828125 37.308594 38.84375 37.417969 38.855469 C 37.625 38.886719 37.9375 38.933594 38.578125 38.933594 L 38.617188 38.933594 L 38.605469 38.894531 C 38.441406 38.429688 37.996094 37.753906 37.28125 36.882812 C 37.34375 36.648438 37.40625 36.496094 37.632812 36.496094 M 31.460938 38.894531 L 31.445312 38.933594 L 31.484375 38.933594 C 32.125 38.933594 32.4375 38.886719 32.644531 38.855469 C 32.753906 38.84375 32.832031 38.828125 32.914062 38.828125 C 33.078125 38.828125 33.207031 38.847656 33.207031 39.050781 C 33.207031 39.1875 33.046875 39.402344 32.890625 39.527344 C 32.65625 39.308594 32.328125 39.261719 31.847656 39.261719 C 31.625 39.261719 31.328125 39.304688 31.171875 39.324219 L 31.148438 39.328125 L 31.121094 39.332031 L 31.128906 39.40625 C 31.148438 39.539062 31.171875 39.703125 31.171875 39.929688 L 31.167969 40.128906 L 31.164062 40.382812 C 31.164062 40.925781 31.238281 41.234375 31.429688 41.46875 C 31.382812 41.488281 31.300781 41.503906 31.25 41.503906 C 30.910156 41.503906 30.8125 41.355469 30.8125 40.382812 C 30.8125 40.1875 30.804688 40.003906 30.796875 39.882812 L 30.785156 39.699219 L 30.746094 39.734375 C 30.242188 40.117188 29.726562 40.800781 29.695312 41.3125 C 29.542969 41.214844 29.378906 40.996094 29.378906 40.828125 C 29.378906 40.546875 29.800781 40.128906 30.285156 39.644531 L 30.5625 39.363281 L 30.601562 39.328125 L 30.507812 39.304688 C 30.402344 39.277344 30.210938 39.230469 30.042969 39.230469 C 29.5 39.230469 29.160156 39.332031 28.949219 39.5625 C 28.871094 39.453125 28.808594 39.195312 28.808594 39.046875 C 28.808594 38.949219 28.828125 38.882812 28.867188 38.84375 C 28.914062 38.796875 28.988281 38.796875 29.054688 38.796875 L 29.066406 38.796875 C 29.667969 38.796875 30.386719 38.90625 30.664062 38.949219 L 30.683594 38.953125 L 30.691406 38.941406 C 30.742188 38.875 31.886719 37.351562 32.183594 36.542969 C 32.25 36.515625 32.308594 36.496094 32.429688 36.496094 C 32.65625 36.496094 32.71875 36.648438 32.78125 36.882812 C 32.066406 37.753906 31.621094 38.429688 31.460938 38.894531 M 28.367188 25.21875 C 28.367188 24.078125 29.195312 23.179688 29.488281 22.925781 C 29.558594 22.941406 29.628906 22.957031 29.699219 22.972656 C 29.386719 23.351562 28.839844 23.984375 28.839844 24.824219 C 28.839844 26.492188 30.621094 27.941406 32.640625 27.941406 C 32.628906 28.085938 32.621094 28.234375 32.621094 28.390625 C 32.621094 28.636719 32.632812 28.863281 32.65625 29.078125 C 30.375 29.066406 28.367188 27.214844 28.367188 25.21875 M 43.671875 28.730469 C 44.695312 30.351562 45.496094 30.324219 46.707031 30.324219 C 45.707031 29.558594 45.046875 28.574219 44.730469 28.070312 L 42.859375 25.078125 C 42.675781 24.15625 42.199219 23.292969 41.484375 22.648438 C 41.722656 22.558594 41.925781 22.460938 42.042969 22.371094 C 40.824219 22.371094 39.613281 21.75 38.945312 21.75 C 38.519531 21.75 38.242188 22.007812 38.242188 22.34375 C 38.269531 22.722656 38.660156 23.105469 39.375 23.105469 C 39.539062 23.105469 39.746094 23.085938 39.972656 23.046875 C 40.363281 23.585938 40.675781 24.074219 40.675781 24.773438 C 40.675781 26.085938 39.109375 27.105469 37.527344 27.105469 C 37.4375 27.105469 37.351562 27.101562 37.265625 27.09375 C 37.121094 26.769531 36.644531 26.226562 36.644531 25.605469 C 36.644531 24.5625 37.324219 23.714844 37.324219 22.683594 C 37.324219 22.042969 37.011719 21.644531 36.890625 21.480469 C 37.085938 21.300781 37.296875 21.078125 37.347656 20.925781 C 37.234375 20.976562 37.101562 20.980469 36.90625 20.980469 C 36.148438 20.980469 35.527344 20.785156 34.925781 20.785156 C 34.582031 20.785156 34.492188 20.890625 34.492188 20.992188 C 34.492188 21.027344 34.496094 21.066406 34.507812 21.085938 C 34.378906 21.035156 34.257812 21.003906 34.113281 20.976562 C 33.9375 20.941406 33.746094 20.925781 33.542969 20.925781 C 32.808594 20.925781 32.550781 21.230469 32.550781 21.496094 C 32.550781 21.71875 32.726562 22.121094 32.925781 22.433594 C 33.210938 22.289062 33.550781 22.191406 33.707031 22.191406 C 34.097656 22.191406 34.441406 22.5625 34.625 23 C 34.363281 23.03125 34.3125 23.042969 34.050781 23.042969 C 33.335938 23.042969 32.851562 22.789062 32.753906 22.789062 C 32.742188 22.789062 32.722656 22.792969 32.722656 22.808594 C 32.722656 22.910156 32.925781 23.171875 33.324219 23.316406 C 33.847656 23.511719 34.636719 23.589844 34.765625 23.613281 C 34.765625 23.636719 34.632812 23.882812 34.484375 23.929688 C 34.453125 23.941406 34.429688 23.941406 34.390625 23.933594 C 33.84375 23.824219 33.691406 23.78125 32.996094 23.515625 C 32.972656 23.507812 32.960938 23.519531 32.960938 23.542969 C 32.960938 23.816406 33.671875 24.425781 34.3125 24.65625 C 33.777344 25.339844 33.113281 26.035156 32.800781 27.09375 C 32.710938 27.101562 32.625 27.105469 32.535156 27.105469 C 30.953125 27.105469 29.386719 26.085938 29.386719 24.773438 C 29.386719 24.074219 29.699219 23.585938 30.089844 23.046875 C 30.316406 23.085938 30.523438 23.105469 30.6875 23.105469 C 31.402344 23.105469 31.792969 22.722656 31.820312 22.34375 C 31.820312 22.007812 31.546875 21.75 31.117188 21.75 C 30.449219 21.75 29.242188 22.371094 28.019531 22.371094 C 28.140625 22.460938 28.339844 22.558594 28.578125 22.648438 C 27.863281 23.292969 27.386719 24.15625 27.203125 25.078125 L 25.335938 28.070312 C 25.019531 28.574219 24.355469 29.558594 23.355469 30.324219 C 24.5625 30.324219 25.367188 30.351562 26.390625 28.730469 L 27.347656 27.199219 C 27.421875 27.398438 27.507812 27.589844 27.609375 27.78125 L 25.703125 30.832031 C 25.386719 31.339844 24.726562 32.3125 23.722656 33.085938 C 24.933594 33.085938 25.734375 33.113281 26.757812 31.492188 L 28.398438 28.867188 C 28.523438 28.996094 28.652344 29.125 28.789062 29.246094 L 26.472656 32.953125 C 26.152344 33.460938 25.5 34.433594 24.492188 35.203125 C 25.703125 35.203125 26.503906 35.234375 27.527344 33.613281 L 29.785156 30 C 29.933594 30.09375 30.085938 30.183594 30.246094 30.269531 L 27.488281 34.683594 C 27.171875 35.1875 26.515625 36.15625 25.507812 36.933594 C 26.71875 36.933594 27.519531 36.960938 28.546875 35.34375 L 31.382812 30.800781 C 31.550781 30.863281 31.722656 30.925781 31.894531 30.980469 L 28.6875 36.113281 C 28.375 36.613281 27.703125 37.601562 26.710938 38.363281 C 27.917969 38.363281 28.722656 38.390625 29.742188 36.773438 L 33.160156 31.304688 C 33.195312 31.308594 33.230469 31.3125 33.265625 31.320312 C 33.359375 31.617188 33.421875 31.894531 33.421875 32.167969 C 33.421875 33.886719 32.296875 35.40625 30.941406 36.578125 C 31.027344 36.613281 31.179688 36.628906 31.316406 36.628906 C 31.597656 36.628906 31.777344 36.613281 31.90625 36.589844 C 31.589844 37.304688 30.917969 38.226562 30.578125 38.699219 C 30.132812 38.621094 29.488281 38.558594 29.066406 38.558594 C 28.625 38.558594 28.574219 38.816406 28.574219 39.046875 C 28.574219 39.449219 28.761719 39.769531 28.980469 39.945312 C 29.0625 39.742188 29.226562 39.46875 30.042969 39.46875 C 30.058594 39.46875 30.089844 39.46875 30.125 39.472656 C 29.886719 39.738281 29.140625 40.339844 29.140625 40.828125 C 29.140625 41.148438 29.492188 41.632812 29.960938 41.632812 C 29.933594 41.527344 29.933594 41.433594 29.933594 41.359375 C 29.933594 40.96875 30.285156 40.507812 30.578125 40.183594 C 30.570312 40.28125 30.574219 40.269531 30.574219 40.382812 C 30.574219 41.3125 30.660156 41.742188 31.25 41.742188 C 31.539062 41.742188 31.738281 41.582031 31.808594 41.535156 C 31.425781 41.179688 31.40625 40.902344 31.40625 40.382812 C 31.40625 40.246094 31.40625 40.113281 31.410156 39.929688 C 31.410156 39.808594 31.40625 39.652344 31.390625 39.535156 C 31.601562 39.507812 31.6875 39.507812 31.847656 39.507812 C 31.847656 39.507812 32.6875 39.441406 32.890625 39.878906 C 33.117188 39.667969 33.449219 39.375 33.449219 39.050781 C 33.449219 38.835938 33.347656 38.589844 32.914062 38.589844 C 32.75 38.589844 32.234375 38.691406 31.804688 38.691406 C 31.921875 38.433594 32.4375 37.679688 32.882812 37.132812 C 32.949219 37.34375 33.054688 37.574219 33.289062 37.761719 C 33.324219 37.410156 33.527344 36.296875 34.078125 35.644531 C 34.144531 36.085938 34.230469 36.535156 34.230469 37.488281 C 34.230469 39.800781 33.671875 41.511719 32.492188 41.835938 C 32.644531 42.105469 32.972656 42.34375 33.308594 42.34375 C 33.738281 42.34375 33.976562 41.855469 34.214844 41.394531 C 34.339844 41.734375 34.683594 42.570312 35.03125 42.570312 C 35.378906 42.570312 35.722656 41.734375 35.847656 41.394531 C 36.085938 41.855469 36.324219 42.34375 36.753906 42.34375 C 37.09375 42.34375 37.417969 42.105469 37.570312 41.835938 C 36.390625 41.511719 35.832031 39.800781 35.832031 37.488281 C 35.832031 36.535156 35.917969 36.085938 35.984375 35.644531 C 36.535156 36.296875 36.742188 37.410156 36.773438 37.761719 C 37.007812 37.574219 37.113281 37.34375 37.179688 37.132812 C 37.625 37.679688 38.140625 38.433594 38.257812 38.691406 C 37.828125 38.691406 37.3125 38.589844 37.148438 38.589844 C 36.714844 38.589844 36.613281 38.835938 36.613281 39.050781 C 36.613281 39.375 36.945312 39.667969 37.171875 39.878906 C 37.375 39.441406 38.214844 39.507812 38.214844 39.507812 C 38.378906 39.507812 38.464844 39.507812 38.675781 39.535156 C 38.65625 39.652344 38.652344 39.808594 38.65625 39.929688 C 38.65625 40.113281 38.65625 40.246094 38.65625 40.382812 C 38.65625 40.902344 38.636719 41.179688 38.253906 41.535156 C 38.324219 41.582031 38.523438 41.742188 38.8125 41.742188 C 39.402344 41.742188 39.488281 41.3125 39.488281 40.382812 C 39.488281 40.269531 39.492188 40.28125 39.484375 40.183594 C 39.777344 40.507812 40.128906 40.96875 40.128906 41.359375 C 40.128906 41.433594 40.132812 41.527344 40.101562 41.632812 C 40.570312 41.632812 40.921875 41.148438 40.921875 40.828125 C 40.921875 40.339844 40.175781 39.738281 39.9375 39.472656 C 39.976562 39.46875 40.003906 39.46875 40.019531 39.46875 C 40.835938 39.46875 41 39.742188 41.082031 39.945312 C 41.300781 39.769531 41.488281 39.449219 41.488281 39.046875 C 41.488281 38.816406 41.4375 38.558594 40.996094 38.558594 C 40.574219 38.558594 39.929688 38.621094 39.484375 38.699219 C 39.144531 38.226562 38.472656 37.304688 38.15625 36.589844 C 38.285156 36.613281 38.464844 36.628906 38.746094 36.628906 C 38.886719 36.628906 39.035156 36.613281 39.121094 36.578125 C 37.769531 35.40625 36.640625 33.886719 36.640625 32.167969 C 36.640625 31.894531 36.703125 31.617188 36.796875 31.320312 C 36.832031 31.3125 36.867188 31.308594 36.902344 31.304688 L 40.320312 36.773438 C 41.34375 38.390625 42.144531 38.363281 43.355469 38.363281 C 42.359375 37.601562 41.6875 36.613281 41.375 36.113281 L 38.167969 30.980469 C 38.34375 30.925781 38.511719 30.863281 38.679688 30.800781 L 41.519531 35.34375 C 42.542969 36.960938 43.34375 36.933594 44.554688 36.933594 C 43.546875 36.15625 42.894531 35.1875 42.574219 34.683594 L 39.820312 30.269531 C 39.976562 30.183594 40.128906 30.09375 40.277344 30 L 42.535156 33.613281 C 43.558594 35.234375 44.359375 35.203125 45.570312 35.203125 C 44.5625 34.433594 43.910156 33.460938 43.589844 32.953125 L 41.273438 29.246094 C 41.410156 29.125 41.539062 28.996094 41.660156 28.867188 L 43.304688 31.492188 C 44.328125 33.113281 45.128906 33.085938 46.339844 33.085938 C 45.335938 32.3125 44.679688 31.339844 44.359375 30.832031 L 42.453125 27.78125 C 42.554688 27.589844 42.644531 27.398438 42.714844 27.199219 Z M 43.671875 28.730469 "/>
<path fill-rule="nonzero" fill="rgb(100%, 100%, 100%)" fill-opacity="1" d="M 52.78125 41.785156 L 56.28125 41.785156 L 56.28125 21.785156 L 52.78125 21.785156 Z M 52.78125 41.785156 "/>
<path fill-rule="nonzero" fill="rgb(100%, 100%, 100%)" fill-opacity="1" d="M 52.78125 44.285156 L 56.28125 44.285156 L 56.28125 43.035156 L 52.78125 43.035156 Z M 52.78125 44.285156 "/>
<path fill-rule="nonzero" fill="rgb(100%, 100%, 100%)" fill-opacity="1" d="M 52.78125 46.785156 L 56.28125 46.785156 L 56.28125 45.535156 L 52.78125 45.535156 Z M 52.78125 46.785156 "/>
<path fill-rule="nonzero" fill="rgb(100%, 100%, 100%)" fill-opacity="1" d="M 52.78125 49.285156 L 56.28125 49.285156 L 56.28125 48.035156 L 52.78125 48.035156 Z M 52.78125 49.285156 "/>
<path fill-rule="nonzero" fill="rgb(100%, 100%, 100%)" fill-opacity="1" d="M 52.78125 51.785156 L 56.28125 51.785156 L 56.28125 50.535156 L 52.78125 50.535156 Z M 52.78125 51.785156 "/>
<path fill-rule="nonzero" fill="rgb(100%, 100%, 100%)" fill-opacity="1" d="M 52.78125 54.285156 L 56.28125 54.285156 L 56.28125 53.035156 L 52.78125 53.035156 Z M 52.78125 54.285156 "/>
<path fill-rule="nonzero" fill="rgb(100%, 100%, 100%)" fill-opacity="1" d="M 52.78125 56.785156 L 56.28125 56.785156 L 56.28125 55.535156 L 52.78125 55.535156 Z M 52.78125 56.785156 "/>
<path fill-rule="nonzero" fill="rgb(100%, 100%, 100%)" fill-opacity="1" d="M 52.78125 59.285156 L 56.28125 59.285156 L 56.28125 58.035156 L 52.78125 58.035156 Z M 52.78125 59.285156 "/>
<path fill-rule="nonzero" fill="rgb(100%, 100%, 100%)" fill-opacity="1" d="M 52.78125 61.785156 L 56.28125 61.785156 L 56.28125 60.535156 L 52.78125 60.535156 Z M 52.78125 61.785156 "/>
<path fill-rule="nonzero" fill="rgb(100%, 100%, 100%)" fill-opacity="1" d="M 52.78125 81.785156 L 56.28125 81.785156 L 56.28125 81.410156 L 52.78125 81.410156 Z M 52.78125 81.785156 "/>
<path fill-rule="nonzero" fill="rgb(100%, 100%, 100%)" fill-opacity="1" d="M 52.78125 79.785156 L 56.28125 79.785156 L 56.28125 79.410156 L 52.78125 79.410156 Z M 52.78125 79.785156 "/>
<path fill-rule="nonzero" fill="rgb(100%, 100%, 100%)" fill-opacity="1" d="M 52.78125 77.785156 L 56.28125 77.785156 L 56.28125 77.410156 L 52.78125 77.410156 Z M 52.78125 77.785156 "/>
<path fill-rule="nonzero" fill="rgb(100%, 100%, 100%)" fill-opacity="1" d="M 52.78125 75.785156 L 56.28125 75.785156 L 56.28125 75.410156 L 52.78125 75.410156 Z M 52.78125 75.785156 "/>
<path fill-rule="nonzero" fill="rgb(100%, 100%, 100%)" fill-opacity="1" d="M 52.78125 73.785156 L 56.28125 73.785156 L 56.28125 73.410156 L 52.78125 73.410156 Z M 52.78125 73.785156 "/>
<path fill-rule="nonzero" fill="rgb(100%, 100%, 100%)" fill-opacity="1" d="M 52.78125 71.785156 L 56.28125 71.785156 L 56.28125 71.410156 L 52.78125 71.410156 Z M 52.78125 71.785156 "/>
<path fill-rule="nonzero" fill="rgb(100%, 100%, 100%)" fill-opacity="1" d="M 52.78125 69.785156 L 56.28125 69.785156 L 56.28125 69.410156 L 52.78125 69.410156 Z M 52.78125 69.785156 "/>
<path fill-rule="nonzero" fill="rgb(100%, 100%, 100%)" fill-opacity="1" d="M 52.78125 67.785156 L 56.28125 67.785156 L 56.28125 67.410156 L 52.78125 67.410156 Z M 52.78125 67.785156 "/>
<path fill-rule="nonzero" fill="rgb(100%, 100%, 100%)" fill-opacity="1" d="M 52.78125 65.785156 L 56.28125 65.785156 L 56.28125 65.410156 L 52.78125 65.410156 Z M 52.78125 65.785156 "/>
<path fill-rule="nonzero" fill="rgb(100%, 100%, 100%)" fill-opacity="1" d="M 52.78125 63.785156 L 56.28125 63.785156 L 56.28125 63.410156 L 52.78125 63.410156 Z M 52.78125 63.785156 "/>
<path fill-rule="nonzero" fill="rgb(100%, 100%, 100%)" fill-opacity="1" d="M 65.273438 29.773438 L 65.273438 26.210938 L 67.996094 26.210938 L 67.996094 25.382812 L 65.273438 25.382812 L 65.273438 22.320312 L 68.226562 22.320312 L 68.296875 21.492188 L 64.230469 21.492188 L 64.230469 29.773438 Z M 71.164062 24.660156 C 71.777344 24.660156 72.101562 25.128906 72.101562 25.921875 C 72.101562 26.101562 72.089844 26.257812 72.078125 26.339844 L 69.988281 26.339844 C 70.035156 25.261719 70.480469 24.660156 71.164062 24.660156 Z M 73.109375 29.234375 L 72.75 28.550781 C 72.617188 28.679688 72.222656 29.054688 71.535156 29.054688 C 70.566406 29.054688 70.035156 28.417969 69.976562 27.074219 L 72.917969 27.074219 C 72.953125 26.796875 72.988281 26.449219 72.988281 25.957031 C 72.988281 24.578125 72.316406 23.867188 71.226562 23.867188 C 70.023438 23.867188 69.027344 24.78125 69.027344 26.820312 C 69.027344 28.992188 69.941406 29.917969 71.394531 29.917969 C 72.484375 29.917969 72.953125 29.402344 73.109375 29.234375 Z M 76.300781 29.054688 C 75.628906 29.054688 75.027344 28.523438 75.027344 26.941406 C 75.027344 25.308594 75.738281 24.734375 76.636719 24.734375 C 76.984375 24.734375 77.214844 24.828125 77.382812 24.9375 L 77.382812 28.488281 C 77.25 28.679688 76.914062 29.054688 76.300781 29.054688 Z M 77.441406 29.160156 L 77.464844 29.160156 L 77.464844 29.773438 L 78.351562 29.773438 L 78.351562 21.179688 L 77.382812 21.289062 L 77.382812 24.050781 C 77.199219 23.976562 76.9375 23.90625 76.566406 23.90625 C 75.339844 23.90625 74.019531 24.648438 74.019531 26.976562 C 74.019531 29.078125 74.945312 29.917969 76.035156 29.917969 C 76.949219 29.917969 77.332031 29.339844 77.441406 29.160156 Z M 81.714844 24.660156 C 82.324219 24.660156 82.648438 25.128906 82.648438 25.921875 C 82.648438 26.101562 82.636719 26.257812 82.625 26.339844 L 80.535156 26.339844 C 80.585938 25.261719 81.027344 24.660156 81.714844 24.660156 Z M 83.65625 29.234375 L 83.296875 28.550781 C 83.164062 28.679688 82.769531 29.054688 82.085938 29.054688 C 81.113281 29.054688 80.585938 28.417969 80.523438 27.074219 L 83.464844 27.074219 C 83.5 26.796875 83.535156 26.449219 83.535156 25.957031 C 83.535156 24.578125 82.863281 23.867188 81.773438 23.867188 C 80.574219 23.867188 79.578125 24.78125 79.578125 26.820312 C 79.578125 28.992188 80.488281 29.917969 81.941406 29.917969 C 83.03125 29.917969 83.5 29.402344 83.65625 29.234375 Z M 87.484375 24 C 87.390625 23.964844 87.234375 23.90625 86.957031 23.90625 C 86.226562 23.90625 85.914062 24.335938 85.746094 24.792969 L 85.722656 24.792969 L 85.722656 24.011719 L 84.832031 24.011719 L 84.832031 29.773438 L 85.804688 29.773438 L 85.804688 25.550781 C 85.949219 25.164062 86.273438 24.769531 86.886719 24.769531 C 87.148438 24.769531 87.316406 24.839844 87.363281 24.863281 Z M 90.628906 26.53125 L 90.328125 26.53125 C 89.019531 26.53125 87.929688 26.976562 87.929688 28.308594 C 87.929688 29.246094 88.589844 29.917969 89.464844 29.917969 C 90.195312 29.917969 90.542969 29.425781 90.675781 29.136719 L 90.699219 29.136719 C 90.714844 29.425781 90.726562 29.605469 90.738281 29.773438 L 91.660156 29.773438 C 91.636719 29.617188 91.589844 29.066406 91.589844 28.574219 L 91.589844 25.945312 C 91.589844 24.492188 90.964844 23.867188 89.789062 23.867188 C 88.863281 23.867188 88.3125 24.3125 88.0625 24.566406 L 88.46875 25.214844 C 88.683594 25.019531 89.070312 24.695312 89.644531 24.695312 C 90.269531 24.695312 90.628906 25.007812 90.628906 25.980469 Z M 90.628906 27.253906 L 90.628906 28.523438 C 90.507812 28.703125 90.234375 29.089844 89.667969 29.089844 C 89.1875 29.089844 88.902344 28.789062 88.902344 28.199219 C 88.902344 27.566406 89.394531 27.300781 90.316406 27.265625 Z M 94.011719 21.179688 L 93.039062 21.289062 L 93.039062 28.511719 C 93.039062 29.53125 93.484375 29.882812 94.132812 29.882812 C 94.566406 29.882812 94.816406 29.773438 94.914062 29.726562 L 94.828125 29.003906 C 94.769531 29.027344 94.648438 29.078125 94.46875 29.078125 C 94.132812 29.078125 94.011719 28.910156 94.011719 28.429688 Z M 104.34375 21.492188 L 102.390625 27.21875 C 102.207031 27.746094 102.054688 28.273438 102.039062 28.632812 L 102.015625 28.632812 C 101.992188 28.273438 101.835938 27.734375 101.65625 27.203125 L 99.699219 21.492188 L 98.535156 21.492188 L 98.535156 29.773438 L 99.542969 29.773438 L 99.542969 25.835938 C 99.542969 24.839844 99.53125 23.882812 99.496094 23.507812 L 99.53125 23.507812 C 99.605469 23.867188 99.894531 24.792969 100.203125 25.730469 L 101.574219 29.773438 L 102.402344 29.773438 L 103.769531 25.730469 C 104.082031 24.792969 104.355469 23.867188 104.441406 23.507812 L 104.476562 23.507812 C 104.441406 23.855469 104.429688 24.839844 104.429688 25.835938 L 104.429688 29.773438 L 105.4375 29.773438 L 105.4375 21.492188 Z M 107.621094 22.621094 C 108.003906 22.621094 108.269531 22.332031 108.269531 21.925781 C 108.269531 21.527344 108.003906 21.242188 107.621094 21.242188 C 107.226562 21.242188 106.960938 21.527344 106.960938 21.925781 C 106.960938 22.332031 107.226562 22.621094 107.621094 22.621094 Z M 108.101562 24.011719 L 107.128906 24.011719 L 107.128906 29.773438 L 108.101562 29.773438 Z M 111.738281 24.695312 C 112.410156 24.695312 112.734375 25.09375 112.734375 26.066406 L 112.734375 29.773438 L 113.703125 29.773438 L 113.703125 25.992188 C 113.703125 24.433594 113.058594 23.867188 112.023438 23.867188 C 111.125 23.867188 110.609375 24.457031 110.5 24.660156 L 110.476562 24.660156 L 110.476562 24.011719 L 109.589844 24.011719 L 109.589844 29.773438 L 110.5625 29.773438 L 110.5625 25.332031 C 110.753906 25.09375 111.148438 24.695312 111.738281 24.695312 Z M 115.648438 22.621094 C 116.03125 22.621094 116.296875 22.332031 116.296875 21.925781 C 116.296875 21.527344 116.03125 21.242188 115.648438 21.242188 C 115.253906 21.242188 114.988281 21.527344 114.988281 21.925781 C 114.988281 22.332031 115.253906 22.621094 115.648438 22.621094 Z M 116.128906 24.011719 L 115.15625 24.011719 L 115.15625 29.773438 L 116.128906 29.773438 Z M 120.519531 24.480469 C 120.328125 24.289062 119.945312 23.867188 119.058594 23.867188 C 118.121094 23.867188 117.390625 24.503906 117.390625 25.355469 C 117.390625 26.148438 117.820312 26.617188 118.539062 27.074219 L 118.902344 27.300781 C 119.453125 27.648438 119.742188 27.839844 119.742188 28.394531 C 119.742188 28.765625 119.429688 29.054688 118.851562 29.054688 C 118.230469 29.054688 117.867188 28.679688 117.6875 28.488281 L 117.222656 29.257812 C 117.449219 29.496094 117.917969 29.917969 118.839844 29.917969 C 120.015625 29.917969 120.675781 29.210938 120.675781 28.296875 C 120.675781 27.445312 120.195312 26.976562 119.417969 26.507812 L 119.058594 26.292969 C 118.539062 25.980469 118.300781 25.742188 118.300781 25.308594 C 118.300781 24.972656 118.578125 24.695312 119.09375 24.695312 C 119.632812 24.695312 119.96875 25.03125 120.101562 25.175781 Z M 124.433594 29.664062 L 124.300781 28.886719 C 124.203125 28.945312 123.988281 29.054688 123.699219 29.054688 C 123.207031 29.054688 123.015625 28.8125 123.015625 27.996094 L 123.015625 24.804688 L 124.277344 24.804688 L 124.398438 24.011719 L 123.015625 24.011719 L 123.015625 22.40625 L 122.152344 22.40625 L 122.042969 24.011719 L 121.347656 24.15625 L 121.347656 24.804688 L 122.042969 24.804688 L 122.042969 28.128906 C 122.042969 29.402344 122.546875 29.917969 123.53125 29.917969 C 124.046875 29.917969 124.347656 29.726562 124.433594 29.664062 Z M 128.03125 24 C 127.9375 23.964844 127.78125 23.90625 127.503906 23.90625 C 126.773438 23.90625 126.460938 24.335938 126.292969 24.792969 L 126.269531 24.792969 L 126.269531 24.011719 L 125.378906 24.011719 L 125.378906 29.773438 L 126.351562 29.773438 L 126.351562 25.550781 C 126.496094 25.164062 126.820312 24.769531 127.433594 24.769531 C 127.695312 24.769531 127.863281 24.839844 127.914062 24.863281 Z M 131.753906 24.011719 L 130.9375 27.21875 C 130.769531 27.863281 130.625 28.441406 130.601562 28.886719 L 130.578125 28.886719 C 130.554688 28.441406 130.386719 27.851562 130.203125 27.203125 L 129.304688 24.011719 L 128.261719 24.011719 L 130.121094 29.761719 L 130.035156 30.0625 C 129.785156 30.949219 129.472656 31.382812 128.789062 31.382812 C 128.585938 31.382812 128.453125 31.332031 128.378906 31.296875 L 128.378906 32.136719 C 128.441406 32.171875 128.609375 32.246094 128.847656 32.246094 C 129.988281 32.246094 130.492188 31.511719 130.914062 30.109375 L 132.710938 24.011719 Z M 131.753906 24.011719 "/>
<path fill-rule="nonzero" fill="rgb(100%, 100%, 100%)" fill-opacity="1" d="M 66.449219 36.804688 L 66.570312 36.011719 L 65.273438 36.011719 L 65.273438 34.980469 C 65.273438 34.226562 65.523438 33.972656 65.980469 33.972656 C 66.234375 33.972656 66.414062 34.070312 66.507812 34.128906 L 66.714844 33.324219 C 66.617188 33.265625 66.304688 33.109375 65.898438 33.109375 C 65.046875 33.109375 64.300781 33.613281 64.300781 34.871094 L 64.300781 36.023438 L 63.605469 36.15625 L 63.605469 36.804688 L 64.300781 36.804688 L 64.300781 41.773438 L 65.273438 41.773438 L 65.273438 36.804688 Z M 67.035156 38.894531 C 67.035156 41.054688 68.007812 41.917969 69.28125 41.917969 C 70.539062 41.917969 71.585938 41.039062 71.585938 38.894531 C 71.585938 36.769531 70.613281 35.867188 69.339844 35.867188 C 68.105469 35.867188 67.035156 36.769531 67.035156 38.894531 Z M 70.578125 38.894531 C 70.578125 40.417969 70.109375 41.054688 69.316406 41.054688 C 68.523438 41.054688 68.046875 40.417969 68.046875 38.894531 C 68.046875 37.367188 68.511719 36.695312 69.304688 36.695312 C 70.097656 36.695312 70.578125 37.367188 70.578125 38.894531 Z M 75.460938 36 C 75.363281 35.964844 75.207031 35.90625 74.933594 35.90625 C 74.199219 35.90625 73.890625 36.335938 73.722656 36.792969 L 73.695312 36.792969 L 73.695312 36.011719 L 72.808594 36.011719 L 72.808594 41.773438 L 73.78125 41.773438 L 73.78125 37.550781 C 73.925781 37.164062 74.25 36.769531 74.859375 36.769531 C 75.125 36.769531 75.292969 36.839844 75.339844 36.863281 Z M 80.214844 41.773438 C 82.746094 41.773438 84.316406 40.464844 84.316406 37.429688 C 84.316406 34.585938 83.03125 33.492188 80.332031 33.492188 L 78.773438 33.492188 L 78.773438 41.773438 Z M 80.332031 34.320312 C 82.167969 34.320312 83.199219 35.089844 83.199219 37.429688 C 83.199219 39.960938 82.121094 40.910156 80.214844 40.910156 L 79.816406 40.910156 L 79.816406 34.320312 Z M 86.117188 34.621094 C 86.5 34.621094 86.765625 34.332031 86.765625 33.925781 C 86.765625 33.527344 86.5 33.242188 86.117188 33.242188 C 85.722656 33.242188 85.457031 33.527344 85.457031 33.925781 C 85.457031 34.332031 85.722656 34.621094 86.117188 34.621094 Z M 86.597656 36.011719 L 85.625 36.011719 L 85.625 41.773438 L 86.597656 41.773438 Z M 90.820312 37.800781 C 90.820312 38.628906 90.363281 38.953125 89.8125 38.953125 C 89.285156 38.953125 88.816406 38.628906 88.816406 37.800781 C 88.816406 36.972656 89.285156 36.648438 89.835938 36.648438 C 90.363281 36.648438 90.820312 36.972656 90.820312 37.800781 Z M 92.238281 42.21875 C 92.238281 41.125 91.421875 40.691406 90.328125 40.691406 L 89.597656 40.691406 C 89.175781 40.691406 89.007812 40.523438 89.007812 40.285156 C 89.007812 39.984375 89.285156 39.828125 89.476562 39.746094 C 89.574219 39.757812 89.667969 39.757812 89.777344 39.757812 C 90.90625 39.757812 91.769531 39.023438 91.769531 37.800781 C 91.769531 37.417969 91.671875 37.058594 91.492188 36.769531 L 92.214844 36.769531 L 92.34375 36.011719 L 90.59375 36.011719 C 90.351562 35.917969 90.101562 35.867188 89.824219 35.867188 C 88.746094 35.867188 87.867188 36.503906 87.867188 37.800781 C 87.867188 38.714844 88.265625 39.289062 88.851562 39.566406 L 88.851562 39.589844 C 88.707031 39.660156 88.15625 39.902344 88.15625 40.523438 C 88.15625 40.886719 88.289062 41.148438 88.527344 41.328125 L 88.527344 41.351562 C 88.265625 41.496094 87.570312 41.90625 87.570312 42.757812 C 87.570312 43.753906 88.230469 44.316406 89.453125 44.316406 C 91.15625 44.316406 92.238281 43.453125 92.238281 42.21875 Z M 89.523438 43.488281 C 88.839844 43.488281 88.503906 43.175781 88.503906 42.566406 C 88.503906 41.988281 88.816406 41.714844 89.09375 41.558594 C 89.226562 41.582031 89.382812 41.59375 89.535156 41.59375 L 90.269531 41.59375 C 90.855469 41.59375 91.242188 41.808594 91.242188 42.359375 C 91.242188 42.949219 90.699219 43.488281 89.523438 43.488281 Z M 93.808594 34.621094 C 94.191406 34.621094 94.457031 34.332031 94.457031 33.925781 C 94.457031 33.527344 94.191406 33.242188 93.808594 33.242188 C 93.414062 33.242188 93.148438 33.527344 93.148438 33.925781 C 93.148438 34.332031 93.414062 34.621094 93.808594 34.621094 Z M 94.289062 36.011719 L 93.316406 36.011719 L 93.316406 41.773438 L 94.289062 41.773438 Z M 98.394531 41.664062 L 98.261719 40.886719 C 98.164062 40.945312 97.949219 41.054688 97.660156 41.054688 C 97.167969 41.054688 96.976562 40.8125 96.976562 39.996094 L 96.976562 36.804688 L 98.238281 36.804688 L 98.355469 36.011719 L 96.976562 36.011719 L 96.976562 34.40625 L 96.113281 34.40625 L 96.003906 36.011719 L 95.308594 36.15625 L 95.308594 36.804688 L 96.003906 36.804688 L 96.003906 40.128906 C 96.003906 41.402344 96.507812 41.917969 97.492188 41.917969 C 98.007812 41.917969 98.308594 41.726562 98.394531 41.664062 Z M 101.703125 38.53125 L 101.40625 38.53125 C 100.097656 38.53125 99.003906 38.976562 99.003906 40.308594 C 99.003906 41.246094 99.664062 41.917969 100.539062 41.917969 C 101.273438 41.917969 101.621094 41.425781 101.753906 41.136719 L 101.777344 41.136719 C 101.789062 41.425781 101.800781 41.605469 101.8125 41.773438 L 102.738281 41.773438 C 102.714844 41.617188 102.664062 41.066406 102.664062 40.574219 L 102.664062 37.945312 C 102.664062 36.492188 102.039062 35.867188 100.863281 35.867188 C 99.941406 35.867188 99.390625 36.3125 99.136719 36.566406 L 99.542969 37.214844 C 99.761719 37.019531 100.144531 36.695312 100.722656 36.695312 C 101.34375 36.695312 101.703125 37.007812 101.703125 37.980469 Z M 101.703125 39.253906 L 101.703125 40.523438 C 101.585938 40.703125 101.308594 41.089844 100.746094 41.089844 C 100.265625 41.089844 99.976562 40.789062 99.976562 40.199219 C 99.976562 39.566406 100.46875 39.300781 101.394531 39.265625 Z M 105.089844 33.179688 L 104.117188 33.289062 L 104.117188 40.511719 C 104.117188 41.53125 104.5625 41.882812 105.207031 41.882812 C 105.640625 41.882812 105.894531 41.773438 105.988281 41.726562 L 105.90625 41.003906 C 105.84375 41.027344 105.726562 41.078125 105.542969 41.078125 C 105.207031 41.078125 105.089844 40.910156 105.089844 40.429688 Z M 114.003906 33.492188 L 108.472656 33.492188 L 108.472656 34.320312 L 110.679688 34.320312 L 110.679688 41.773438 L 111.726562 41.773438 L 111.726562 34.320312 L 113.933594 34.320312 Z M 116.609375 36 C 116.511719 35.964844 116.355469 35.90625 116.082031 35.90625 C 115.347656 35.90625 115.035156 36.335938 114.867188 36.792969 L 114.84375 36.792969 L 114.84375 36.011719 L 113.957031 36.011719 L 113.957031 41.773438 L 114.929688 41.773438 L 114.929688 37.550781 C 115.074219 37.164062 115.398438 36.769531 116.007812 36.769531 C 116.273438 36.769531 116.441406 36.839844 116.488281 36.863281 Z M 119.753906 38.53125 L 119.453125 38.53125 C 118.144531 38.53125 117.054688 38.976562 117.054688 40.308594 C 117.054688 41.246094 117.710938 41.917969 118.589844 41.917969 C 119.320312 41.917969 119.667969 41.425781 119.800781 41.136719 L 119.824219 41.136719 C 119.835938 41.425781 119.847656 41.605469 119.859375 41.773438 L 120.785156 41.773438 C 120.761719 41.617188 120.710938 41.066406 120.710938 40.574219 L 120.710938 37.945312 C 120.710938 36.492188 120.089844 35.867188 118.914062 35.867188 C 117.988281 35.867188 117.4375 36.3125 117.183594 36.566406 L 117.59375 37.214844 C 117.808594 37.019531 118.191406 36.695312 118.769531 36.695312 C 119.394531 36.695312 119.753906 37.007812 119.753906 37.980469 Z M 119.753906 39.253906 L 119.753906 40.523438 C 119.632812 40.703125 119.355469 41.089844 118.792969 41.089844 C 118.3125 41.089844 118.023438 40.789062 118.023438 40.199219 C 118.023438 39.566406 118.515625 39.300781 119.441406 39.265625 Z M 124.324219 36.695312 C 124.996094 36.695312 125.320312 37.09375 125.320312 38.066406 L 125.320312 41.773438 L 126.292969 41.773438 L 126.292969 37.992188 C 126.292969 36.433594 125.644531 35.867188 124.613281 35.867188 C 123.710938 35.867188 123.195312 36.457031 123.089844 36.660156 L 123.066406 36.660156 L 123.066406 36.011719 L 122.175781 36.011719 L 122.175781 41.773438 L 123.148438 41.773438 L 123.148438 37.332031 C 123.339844 37.09375 123.738281 36.695312 124.324219 36.695312 Z M 130.648438 36.480469 C 130.457031 36.289062 130.074219 35.867188 129.183594 35.867188 C 128.25 35.867188 127.515625 36.503906 127.515625 37.355469 C 127.515625 38.148438 127.949219 38.617188 128.667969 39.074219 L 129.027344 39.300781 C 129.582031 39.648438 129.867188 39.839844 129.867188 40.394531 C 129.867188 40.765625 129.558594 41.054688 128.980469 41.054688 C 128.355469 41.054688 127.996094 40.679688 127.816406 40.488281 L 127.347656 41.257812 C 127.578125 41.496094 128.042969 41.917969 128.96875 41.917969 C 130.144531 41.917969 130.804688 41.210938 130.804688 40.296875 C 130.804688 39.445312 130.324219 38.976562 129.542969 38.507812 L 129.183594 38.292969 C 128.667969 37.980469 128.429688 37.742188 128.429688 37.308594 C 128.429688 36.972656 128.703125 36.695312 129.222656 36.695312 C 129.761719 36.695312 130.097656 37.03125 130.230469 37.175781 Z M 134.367188 36.804688 L 134.488281 36.011719 L 133.191406 36.011719 L 133.191406 34.980469 C 133.191406 34.226562 133.445312 33.972656 133.902344 33.972656 C 134.152344 33.972656 134.332031 34.070312 134.429688 34.128906 L 134.632812 33.324219 C 134.535156 33.265625 134.226562 33.109375 133.816406 33.109375 C 132.964844 33.109375 132.222656 33.613281 132.222656 34.871094 L 132.222656 36.023438 L 131.523438 36.15625 L 131.523438 36.804688 L 132.222656 36.804688 L 132.222656 41.773438 L 133.191406 41.773438 L 133.191406 36.804688 Z M 134.957031 38.894531 C 134.957031 41.054688 135.929688 41.917969 137.199219 41.917969 C 138.460938 41.917969 139.503906 41.039062 139.503906 38.894531 C 139.503906 36.769531 138.53125 35.867188 137.261719 35.867188 C 136.023438 35.867188 134.957031 36.769531 134.957031 38.894531 Z M 138.496094 38.894531 C 138.496094 40.417969 138.027344 41.054688 137.238281 41.054688 C 136.445312 41.054688 135.964844 40.417969 135.964844 38.894531 C 135.964844 37.367188 136.433594 36.695312 137.226562 36.695312 C 138.015625 36.695312 138.496094 37.367188 138.496094 38.894531 Z M 143.378906 36 C 143.285156 35.964844 143.128906 35.90625 142.851562 35.90625 C 142.121094 35.90625 141.808594 36.335938 141.640625 36.792969 L 141.617188 36.792969 L 141.617188 36.011719 L 140.730469 36.011719 L 140.730469 41.773438 L 141.699219 41.773438 L 141.699219 37.550781 C 141.84375 37.164062 142.167969 36.769531 142.78125 36.769531 C 143.042969 36.769531 143.210938 36.839844 143.261719 36.863281 Z M 146.378906 36.734375 C 146.980469 36.734375 147.246094 37.128906 147.246094 38.066406 L 147.246094 41.773438 L 148.214844 41.773438 L 148.214844 37.910156 C 148.214844 37.691406 148.203125 37.488281 148.167969 37.308594 C 148.382812 37.058594 148.746094 36.734375 149.273438 36.734375 C 149.921875 36.734375 150.269531 37.128906 150.269531 38.066406 L 150.269531 41.773438 L 151.242188 41.773438 L 151.242188 37.910156 C 151.242188 36.539062 150.640625 35.867188 149.488281 35.867188 C 148.746094 35.867188 148.214844 36.3125 147.964844 36.636719 C 147.699219 36.121094 147.222656 35.867188 146.574219 35.867188 C 145.78125 35.867188 145.289062 36.398438 145.132812 36.660156 L 145.109375 36.660156 L 145.109375 36.011719 L 144.222656 36.011719 L 144.222656 41.773438 L 145.191406 41.773438 L 145.191406 37.332031 C 145.359375 37.128906 145.734375 36.734375 146.378906 36.734375 Z M 155.058594 38.53125 L 154.757812 38.53125 C 153.449219 38.53125 152.355469 38.976562 152.355469 40.308594 C 152.355469 41.246094 153.015625 41.917969 153.894531 41.917969 C 154.625 41.917969 154.972656 41.425781 155.105469 41.136719 L 155.128906 41.136719 C 155.140625 41.425781 155.152344 41.605469 155.164062 41.773438 L 156.089844 41.773438 C 156.066406 41.617188 156.015625 41.066406 156.015625 40.574219 L 156.015625 37.945312 C 156.015625 36.492188 155.394531 35.867188 154.214844 35.867188 C 153.292969 35.867188 152.742188 36.3125 152.488281 36.566406 L 152.898438 37.214844 C 153.113281 37.019531 153.496094 36.695312 154.074219 36.695312 C 154.695312 36.695312 155.058594 37.007812 155.058594 37.980469 Z M 155.058594 39.253906 L 155.058594 40.523438 C 154.9375 40.703125 154.660156 41.089844 154.097656 41.089844 C 153.617188 41.089844 153.328125 40.789062 153.328125 40.199219 C 153.328125 39.566406 153.820312 39.300781 154.746094 39.265625 Z M 160.097656 41.664062 L 159.964844 40.886719 C 159.867188 40.945312 159.652344 41.054688 159.363281 41.054688 C 158.871094 41.054688 158.679688 40.8125 158.679688 39.996094 L 158.679688 36.804688 L 159.941406 36.804688 L 160.0625 36.011719 L 158.679688 36.011719 L 158.679688 34.40625 L 157.816406 34.40625 L 157.707031 36.011719 L 157.011719 36.15625 L 157.011719 36.804688 L 157.707031 36.804688 L 157.707031 40.128906 C 157.707031 41.402344 158.210938 41.917969 159.195312 41.917969 C 159.710938 41.917969 160.011719 41.726562 160.097656 41.664062 Z M 161.535156 34.621094 C 161.921875 34.621094 162.183594 34.332031 162.183594 33.925781 C 162.183594 33.527344 161.921875 33.242188 161.535156 33.242188 C 161.140625 33.242188 160.875 33.527344 160.875 33.925781 C 160.875 34.332031 161.140625 34.621094 161.535156 34.621094 Z M 162.015625 36.011719 L 161.042969 36.011719 L 161.042969 41.773438 L 162.015625 41.773438 Z M 163.242188 38.894531 C 163.242188 41.054688 164.210938 41.917969 165.484375 41.917969 C 166.746094 41.917969 167.789062 41.039062 167.789062 38.894531 C 167.789062 36.769531 166.816406 35.867188 165.542969 35.867188 C 164.308594 35.867188 163.242188 36.769531 163.242188 38.894531 Z M 166.78125 38.894531 C 166.78125 40.417969 166.3125 41.054688 165.519531 41.054688 C 164.730469 41.054688 164.25 40.417969 164.25 38.894531 C 164.25 37.367188 164.714844 36.695312 165.507812 36.695312 C 166.300781 36.695312 166.78125 37.367188 166.78125 38.894531 Z M 171.160156 36.695312 C 171.832031 36.695312 172.15625 37.09375 172.15625 38.066406 L 172.15625 41.773438 L 173.128906 41.773438 L 173.128906 37.992188 C 173.128906 36.433594 172.480469 35.867188 171.449219 35.867188 C 170.546875 35.867188 170.03125 36.457031 169.925781 36.660156 L 169.902344 36.660156 L 169.902344 36.011719 L 169.011719 36.011719 L 169.011719 41.773438 L 169.984375 41.773438 L 169.984375 37.332031 C 170.175781 37.09375 170.574219 36.695312 171.160156 36.695312 Z M 179.488281 38.53125 L 179.1875 38.53125 C 177.878906 38.53125 176.789062 38.976562 176.789062 40.308594 C 176.789062 41.246094 177.449219 41.917969 178.324219 41.917969 C 179.058594 41.917969 179.40625 41.425781 179.535156 41.136719 L 179.5625 41.136719 C 179.574219 41.425781 179.585938 41.605469 179.597656 41.773438 L 180.519531 41.773438 C 180.496094 41.617188 180.449219 41.066406 180.449219 40.574219 L 180.449219 37.945312 C 180.449219 36.492188 179.824219 35.867188 178.648438 35.867188 C 177.726562 35.867188 177.171875 36.3125 176.921875 36.566406 L 177.328125 37.214844 C 177.542969 37.019531 177.929688 36.695312 178.503906 36.695312 C 179.128906 36.695312 179.488281 37.007812 179.488281 37.980469 Z M 179.488281 39.253906 L 179.488281 40.523438 C 179.367188 40.703125 179.09375 41.089844 178.527344 41.089844 C 178.046875 41.089844 177.761719 40.789062 177.761719 40.199219 C 177.761719 39.566406 178.253906 39.300781 179.175781 39.265625 Z M 184.0625 36.695312 C 184.734375 36.695312 185.058594 37.09375 185.058594 38.066406 L 185.058594 41.773438 L 186.027344 41.773438 L 186.027344 37.992188 C 186.027344 36.433594 185.378906 35.867188 184.347656 35.867188 C 183.449219 35.867188 182.933594 36.457031 182.824219 36.660156 L 182.800781 36.660156 L 182.800781 36.011719 L 181.914062 36.011719 L 181.914062 41.773438 L 182.882812 41.773438 L 182.882812 37.332031 C 183.078125 37.09375 183.472656 36.695312 184.0625 36.695312 Z M 189.496094 41.054688 C 188.824219 41.054688 188.226562 40.523438 188.226562 38.941406 C 188.226562 37.308594 188.933594 36.734375 189.832031 36.734375 C 190.179688 36.734375 190.410156 36.828125 190.578125 36.9375 L 190.578125 40.488281 C 190.445312 40.679688 190.109375 41.054688 189.496094 41.054688 Z M 190.636719 41.160156 L 190.660156 41.160156 L 190.660156 41.773438 L 191.546875 41.773438 L 191.546875 33.179688 L 190.578125 33.289062 L 190.578125 36.050781 C 190.398438 35.976562 190.132812 35.90625 189.761719 35.90625 C 188.535156 35.90625 187.214844 36.648438 187.214844 38.976562 C 187.214844 41.078125 188.140625 41.917969 189.234375 41.917969 C 190.144531 41.917969 190.527344 41.339844 190.636719 41.160156 Z M 190.636719 41.160156 "/>
<path fill-rule="nonzero" fill="rgb(100%, 100%, 100%)" fill-opacity="1" d="M 69.316406 53.222656 L 69.316406 49.574219 L 66.988281 49.574219 L 66.988281 50.402344 L 68.308594 50.402344 L 68.308594 52.8125 C 68.019531 52.921875 67.648438 53.015625 67.230469 53.015625 C 65.742188 53.015625 64.960938 52.058594 64.960938 49.574219 C 64.960938 47.054688 66.089844 46.214844 67.324219 46.214844 C 68.25 46.214844 68.691406 46.65625 68.859375 46.8125 L 69.351562 46.082031 C 69.113281 45.863281 68.609375 45.347656 67.371094 45.347656 C 65.621094 45.347656 63.84375 46.476562 63.84375 49.574219 C 63.84375 52.835938 65.238281 53.917969 67.132812 53.917969 C 68.417969 53.917969 69.101562 53.402344 69.316406 53.222656 Z M 70.480469 50.894531 C 70.480469 53.054688 71.453125 53.917969 72.726562 53.917969 C 73.984375 53.917969 75.027344 53.039062 75.027344 50.894531 C 75.027344 48.769531 74.058594 47.867188 72.785156 47.867188 C 71.550781 47.867188 70.480469 48.769531 70.480469 50.894531 Z M 74.019531 50.894531 C 74.019531 52.417969 73.554688 53.054688 72.761719 53.054688 C 71.96875 53.054688 71.488281 52.417969 71.488281 50.894531 C 71.488281 49.367188 71.957031 48.695312 72.75 48.695312 C 73.539062 48.695312 74.019531 49.367188 74.019531 50.894531 Z M 79.085938 48.011719 L 78.195312 51.203125 C 78.015625 51.851562 77.871094 52.367188 77.835938 52.859375 L 77.8125 52.859375 C 77.777344 52.367188 77.632812 51.828125 77.464844 51.191406 L 76.625 48.011719 L 75.582031 48.011719 L 77.367188 53.773438 L 78.246094 53.773438 L 80.019531 48.011719 Z M 82.695312 48.660156 C 83.308594 48.660156 83.632812 49.128906 83.632812 49.921875 C 83.632812 50.101562 83.621094 50.257812 83.609375 50.339844 L 81.519531 50.339844 C 81.570312 49.261719 82.011719 48.660156 82.695312 48.660156 Z M 84.640625 53.234375 L 84.28125 52.550781 C 84.148438 52.679688 83.753906 53.054688 83.070312 53.054688 C 82.097656 53.054688 81.570312 52.417969 81.507812 51.074219 L 84.449219 51.074219 C 84.484375 50.796875 84.519531 50.449219 84.519531 49.957031 C 84.519531 48.578125 83.847656 47.867188 82.757812 47.867188 C 81.558594 47.867188 80.5625 48.78125 80.5625 50.820312 C 80.5625 52.992188 81.472656 53.917969 82.925781 53.917969 C 84.015625 53.917969 84.484375 53.402344 84.640625 53.234375 Z M 88.46875 48 C 88.371094 47.964844 88.21875 47.90625 87.941406 47.90625 C 87.207031 47.90625 86.898438 48.335938 86.730469 48.792969 L 86.703125 48.792969 L 86.703125 48.011719 L 85.816406 48.011719 L 85.816406 53.773438 L 86.789062 53.773438 L 86.789062 49.550781 C 86.933594 49.164062 87.257812 48.769531 87.867188 48.769531 C 88.132812 48.769531 88.300781 48.839844 88.347656 48.863281 Z M 91.457031 48.695312 C 92.128906 48.695312 92.453125 49.09375 92.453125 50.066406 L 92.453125 53.773438 L 93.425781 53.773438 L 93.425781 49.992188 C 93.425781 48.433594 92.777344 47.867188 91.746094 47.867188 C 90.84375 47.867188 90.328125 48.457031 90.222656 48.660156 L 90.195312 48.660156 L 90.195312 48.011719 L 89.308594 48.011719 L 89.308594 53.773438 L 90.28125 53.773438 L 90.28125 49.332031 C 90.472656 49.09375 90.867188 48.695312 91.457031 48.695312 Z M 97.035156 48.734375 C 97.636719 48.734375 97.902344 49.128906 97.902344 50.066406 L 97.902344 53.773438 L 98.871094 53.773438 L 98.871094 49.910156 C 98.871094 49.691406 98.859375 49.488281 98.824219 49.308594 C 99.039062 49.058594 99.402344 48.734375 99.929688 48.734375 C 100.578125 48.734375 100.925781 49.128906 100.925781 50.066406 L 100.925781 53.773438 L 101.898438 53.773438 L 101.898438 49.910156 C 101.898438 48.539062 101.296875 47.867188 100.144531 47.867188 C 99.402344 47.867188 98.871094 48.3125 98.621094 48.636719 C 98.355469 48.121094 97.875 47.867188 97.230469 47.867188 C 96.4375 47.867188 95.945312 48.398438 95.789062 48.660156 L 95.765625 48.660156 L 95.765625 48.011719 L 94.875 48.011719 L 94.875 53.773438 L 95.847656 53.773438 L 95.847656 49.332031 C 96.015625 49.128906 96.390625 48.734375 97.035156 48.734375 Z M 105.222656 48.660156 C 105.832031 48.660156 106.15625 49.128906 106.15625 49.921875 C 106.15625 50.101562 106.144531 50.257812 106.132812 50.339844 L 104.042969 50.339844 C 104.09375 49.261719 104.535156 48.660156 105.222656 48.660156 Z M 107.164062 53.234375 L 106.804688 52.550781 C 106.671875 52.679688 106.277344 53.054688 105.59375 53.054688 C 104.621094 53.054688 104.09375 52.417969 104.03125 51.074219 L 106.972656 51.074219 C 107.007812 50.796875 107.042969 50.449219 107.042969 49.957031 C 107.042969 48.578125 106.371094 47.867188 105.28125 47.867188 C 104.082031 47.867188 103.085938 48.78125 103.085938 50.820312 C 103.085938 52.992188 103.996094 53.917969 105.449219 53.917969 C 106.539062 53.917969 107.007812 53.402344 107.164062 53.234375 Z M 110.488281 48.695312 C 111.160156 48.695312 111.484375 49.09375 111.484375 50.066406 L 111.484375 53.773438 L 112.457031 53.773438 L 112.457031 49.992188 C 112.457031 48.433594 111.808594 47.867188 110.777344 47.867188 C 109.875 47.867188 109.359375 48.457031 109.253906 48.660156 L 109.230469 48.660156 L 109.230469 48.011719 L 108.339844 48.011719 L 108.339844 53.773438 L 109.3125 53.773438 L 109.3125 49.332031 C 109.503906 49.09375 109.902344 48.695312 110.488281 48.695312 Z M 116.523438 53.664062 L 116.394531 52.886719 C 116.296875 52.945312 116.082031 53.054688 115.792969 53.054688 C 115.300781 53.054688 115.109375 52.8125 115.109375 51.996094 L 115.109375 48.804688 L 116.367188 48.804688 L 116.488281 48.011719 L 115.109375 48.011719 L 115.109375 46.40625 L 114.246094 46.40625 L 114.136719 48.011719 L 113.441406 48.15625 L 113.441406 48.804688 L 114.136719 48.804688 L 114.136719 52.128906 C 114.136719 53.402344 114.640625 53.917969 115.625 53.917969 C 116.140625 53.917969 116.441406 53.726562 116.523438 53.664062 Z M 126.027344 45.492188 L 124.074219 51.21875 C 123.894531 51.746094 123.738281 52.273438 123.726562 52.632812 L 123.699219 52.632812 C 123.675781 52.273438 123.519531 51.734375 123.339844 51.203125 L 121.386719 45.492188 L 120.222656 45.492188 L 120.222656 53.773438 L 121.230469 53.773438 L 121.230469 49.835938 C 121.230469 48.839844 121.21875 47.882812 121.179688 47.507812 L 121.21875 47.507812 C 121.289062 47.867188 121.578125 48.792969 121.890625 49.730469 L 123.257812 53.773438 L 124.085938 53.773438 L 125.453125 49.730469 C 125.765625 48.792969 126.039062 47.867188 126.125 47.507812 L 126.160156 47.507812 C 126.125 47.855469 126.113281 48.839844 126.113281 49.835938 L 126.113281 53.773438 L 127.121094 53.773438 L 127.121094 45.492188 Z M 128.5 50.894531 C 128.5 53.054688 129.472656 53.917969 130.746094 53.917969 C 132.003906 53.917969 133.046875 53.039062 133.046875 50.894531 C 133.046875 48.769531 132.078125 47.867188 130.804688 47.867188 C 129.570312 47.867188 128.5 48.769531 128.5 50.894531 Z M 132.039062 50.894531 C 132.039062 52.417969 131.574219 53.054688 130.78125 53.054688 C 129.988281 53.054688 129.507812 52.417969 129.507812 50.894531 C 129.507812 49.367188 129.976562 48.695312 130.769531 48.695312 C 131.5625 48.695312 132.039062 49.367188 132.039062 50.894531 Z M 136.289062 53.054688 C 135.617188 53.054688 135.015625 52.523438 135.015625 50.941406 C 135.015625 49.308594 135.726562 48.734375 136.625 48.734375 C 136.972656 48.734375 137.199219 48.828125 137.367188 48.9375 L 137.367188 52.488281 C 137.238281 52.679688 136.902344 53.054688 136.289062 53.054688 Z M 137.429688 53.160156 L 137.453125 53.160156 L 137.453125 53.773438 L 138.339844 53.773438 L 138.339844 45.179688 L 137.367188 45.289062 L 137.367188 48.050781 C 137.1875 47.976562 136.925781 47.90625 136.554688 47.90625 C 135.328125 47.90625 134.007812 48.648438 134.007812 50.976562 C 134.007812 53.078125 134.933594 53.917969 136.023438 53.917969 C 136.9375 53.917969 137.320312 53.339844 137.429688 53.160156 Z M 141.699219 48.660156 C 142.3125 48.660156 142.636719 49.128906 142.636719 49.921875 C 142.636719 50.101562 142.625 50.257812 142.613281 50.339844 L 140.523438 50.339844 C 140.574219 49.261719 141.015625 48.660156 141.699219 48.660156 Z M 143.644531 53.234375 L 143.285156 52.550781 C 143.152344 52.679688 142.757812 53.054688 142.074219 53.054688 C 141.101562 53.054688 140.574219 52.417969 140.511719 51.074219 L 143.453125 51.074219 C 143.488281 50.796875 143.523438 50.449219 143.523438 49.957031 C 143.523438 48.578125 142.851562 47.867188 141.761719 47.867188 C 140.5625 47.867188 139.566406 48.78125 139.566406 50.820312 C 139.566406 52.992188 140.476562 53.917969 141.929688 53.917969 C 143.019531 53.917969 143.488281 53.402344 143.644531 53.234375 Z M 147.472656 48 C 147.375 47.964844 147.222656 47.90625 146.945312 47.90625 C 146.210938 47.90625 145.902344 48.335938 145.734375 48.792969 L 145.707031 48.792969 L 145.707031 48.011719 L 144.820312 48.011719 L 144.820312 53.773438 L 145.792969 53.773438 L 145.792969 49.550781 C 145.9375 49.164062 146.261719 48.769531 146.871094 48.769531 C 147.136719 48.769531 147.304688 48.839844 147.351562 48.863281 Z M 150.460938 48.695312 C 151.132812 48.695312 151.457031 49.09375 151.457031 50.066406 L 151.457031 53.773438 L 152.429688 53.773438 L 152.429688 49.992188 C 152.429688 48.433594 151.78125 47.867188 150.75 47.867188 C 149.847656 47.867188 149.332031 48.457031 149.226562 48.660156 L 149.199219 48.660156 L 149.199219 48.011719 L 148.3125 48.011719 L 148.3125 53.773438 L 149.285156 53.773438 L 149.285156 49.332031 C 149.476562 49.09375 149.871094 48.695312 150.460938 48.695312 Z M 154.371094 46.621094 C 154.757812 46.621094 155.019531 46.332031 155.019531 45.925781 C 155.019531 45.527344 154.757812 45.242188 154.371094 45.242188 C 153.976562 45.242188 153.710938 45.527344 153.710938 45.925781 C 153.710938 46.332031 153.976562 46.621094 154.371094 46.621094 Z M 154.851562 48.011719 L 153.878906 48.011719 L 153.878906 53.773438 L 154.851562 53.773438 Z M 159.246094 48.480469 C 159.054688 48.289062 158.667969 47.867188 157.78125 47.867188 C 156.84375 47.867188 156.113281 48.503906 156.113281 49.355469 C 156.113281 50.148438 156.542969 50.617188 157.265625 51.074219 L 157.625 51.300781 C 158.175781 51.648438 158.464844 51.839844 158.464844 52.394531 C 158.464844 52.765625 158.152344 53.054688 157.578125 53.054688 C 156.953125 53.054688 156.59375 52.679688 156.414062 52.488281 L 155.945312 53.257812 C 156.171875 53.496094 156.640625 53.917969 157.566406 53.917969 C 158.742188 53.917969 159.402344 53.210938 159.402344 52.296875 C 159.402344 51.445312 158.921875 50.976562 158.140625 50.507812 L 157.78125 50.292969 C 157.265625 49.980469 157.023438 49.742188 157.023438 49.308594 C 157.023438 48.972656 157.300781 48.695312 157.816406 48.695312 C 158.355469 48.695312 158.691406 49.03125 158.824219 49.175781 Z M 162.90625 50.53125 L 162.605469 50.53125 C 161.296875 50.53125 160.203125 50.976562 160.203125 52.308594 C 160.203125 53.246094 160.863281 53.917969 161.742188 53.917969 C 162.472656 53.917969 162.820312 53.425781 162.953125 53.136719 L 162.976562 53.136719 C 162.988281 53.425781 163 53.605469 163.011719 53.773438 L 163.9375 53.773438 C 163.914062 53.617188 163.863281 53.066406 163.863281 52.574219 L 163.863281 49.945312 C 163.863281 48.492188 163.242188 47.867188 162.066406 47.867188 C 161.140625 47.867188 160.589844 48.3125 160.335938 48.566406 L 160.746094 49.214844 C 160.960938 49.019531 161.34375 48.695312 161.921875 48.695312 C 162.542969 48.695312 162.90625 49.007812 162.90625 49.980469 Z M 162.90625 51.253906 L 162.90625 52.523438 C 162.785156 52.703125 162.507812 53.089844 161.945312 53.089844 C 161.464844 53.089844 161.175781 52.789062 161.175781 52.199219 C 161.175781 51.566406 161.667969 51.300781 162.59375 51.265625 Z M 167.945312 53.664062 L 167.8125 52.886719 C 167.714844 52.945312 167.5 53.054688 167.210938 53.054688 C 166.722656 53.054688 166.527344 52.8125 166.527344 51.996094 L 166.527344 48.804688 L 167.789062 48.804688 L 167.910156 48.011719 L 166.527344 48.011719 L 166.527344 46.40625 L 165.664062 46.40625 L 165.558594 48.011719 L 164.859375 48.15625 L 164.859375 48.804688 L 165.558594 48.804688 L 165.558594 52.128906 C 165.558594 53.402344 166.0625 53.917969 167.042969 53.917969 C 167.5625 53.917969 167.859375 53.726562 167.945312 53.664062 Z M 169.382812 46.621094 C 169.769531 46.621094 170.03125 46.332031 170.03125 45.925781 C 170.03125 45.527344 169.769531 45.242188 169.382812 45.242188 C 168.988281 45.242188 168.726562 45.527344 168.726562 45.925781 C 168.726562 46.332031 168.988281 46.621094 169.382812 46.621094 Z M 169.863281 48.011719 L 168.894531 48.011719 L 168.894531 53.773438 L 169.863281 53.773438 Z M 171.089844 50.894531 C 171.089844 53.054688 172.0625 53.917969 173.332031 53.917969 C 174.59375 53.917969 175.636719 53.039062 175.636719 50.894531 C 175.636719 48.769531 174.664062 47.867188 173.394531 47.867188 C 172.15625 47.867188 171.089844 48.769531 171.089844 50.894531 Z M 174.628906 50.894531 C 174.628906 52.417969 174.160156 53.054688 173.367188 53.054688 C 172.578125 53.054688 172.097656 52.417969 172.097656 50.894531 C 172.097656 49.367188 172.566406 48.695312 173.355469 48.695312 C 174.148438 48.695312 174.628906 49.367188 174.628906 50.894531 Z M 179.007812 48.695312 C 179.679688 48.695312 180.003906 49.09375 180.003906 50.066406 L 180.003906 53.773438 L 180.976562 53.773438 L 180.976562 49.992188 C 180.976562 48.433594 180.328125 47.867188 179.296875 47.867188 C 178.398438 47.867188 177.878906 48.457031 177.773438 48.660156 L 177.75 48.660156 L 177.75 48.011719 L 176.859375 48.011719 L 176.859375 53.773438 L 177.832031 53.773438 L 177.832031 49.332031 C 178.023438 49.09375 178.421875 48.695312 179.007812 48.695312 Z M 179.007812 48.695312 "/>
</svg>
