<?xml version="1.0" encoding="UTF-8"?>
<svg xmlns="http://www.w3.org/2000/svg" xmlns:xlink="http://www.w3.org/1999/xlink" width="180" height="104" viewBox="0 0 180 104">
<path fill-rule="nonzero" fill="rgb(100%, 100%, 100%)" fill-opacity="1" d="M 37.453125 29.078125 C 37.480469 28.855469 37.496094 28.625 37.496094 28.390625 C 37.496094 28.261719 37.496094 28.109375 37.480469 27.941406 C 39.476562 27.910156 41.222656 26.476562 41.222656 24.824219 C 41.222656 23.984375 40.675781 23.351562 40.367188 22.972656 C 40.433594 22.957031 40.503906 22.941406 40.574219 22.925781 C 40.867188 23.179688 41.695312 24.078125 41.695312 25.21875 C 41.695312 27.199219 39.714844 29.039062 37.453125 29.078125 M 35.445312 22.179688 C 35.410156 21.960938 35.324219 21.761719 35.195312 21.589844 C 35.203125 21.386719 35.285156 21.191406 35.613281 21.351562 C 35.4375 21.53125 35.570312 21.851562 35.570312 21.851562 C 35.570312 21.851562 35.933594 21.683594 35.855469 21.445312 C 36.390625 21.574219 36.007812 22.289062 35.445312 22.179688 M 34.984375 23.199219 C 34.910156 22.902344 34.761719 22.597656 34.566406 22.367188 C 34.390625 22.160156 34.101562 21.914062 33.707031 21.914062 C 33.527344 21.914062 33.230469 21.996094 33.039062 22.078125 C 32.96875 21.949219 32.828125 21.636719 32.828125 21.496094 C 32.828125 21.351562 33.074219 21.203125 33.542969 21.203125 C 34.574219 21.203125 35.191406 21.667969 35.191406 22.449219 C 35.191406 22.726562 35.082031 22.976562 34.984375 23.199219 M 37.632812 36.496094 C 37.753906 36.496094 37.8125 36.515625 37.882812 36.542969 C 38.179688 37.351562 39.324219 38.875 39.371094 38.941406 L 39.382812 38.953125 L 39.398438 38.949219 C 39.679688 38.90625 40.394531 38.796875 40.996094 38.796875 L 41.011719 38.796875 C 41.074219 38.796875 41.148438 38.796875 41.195312 38.84375 C 41.234375 38.882812 41.253906 38.949219 41.253906 39.046875 C 41.253906 39.195312 41.191406 39.453125 41.113281 39.5625 C 40.90625 39.332031 40.5625 39.230469 40.019531 39.230469 C 39.855469 39.230469 39.660156 39.277344 39.554688 39.304688 L 39.511719 39.316406 L 39.464844 39.328125 L 39.777344 39.644531 C 40.265625 40.128906 40.683594 40.546875 40.683594 40.828125 C 40.683594 40.996094 40.519531 41.214844 40.371094 41.3125 C 40.335938 40.800781 39.820312 40.117188 39.316406 39.734375 L 39.273438 39.699219 L 39.265625 39.882812 C 39.261719 40.003906 39.25 40.1875 39.25 40.382812 C 39.25 41.355469 39.148438 41.503906 38.8125 41.503906 C 38.761719 41.503906 38.683594 41.488281 38.632812 41.46875 C 38.824219 41.234375 38.898438 40.925781 38.898438 40.382812 L 38.894531 40.128906 L 38.890625 39.929688 C 38.890625 39.703125 38.914062 39.539062 38.933594 39.40625 L 38.941406 39.332031 L 38.890625 39.324219 C 38.730469 39.304688 38.4375 39.261719 38.214844 39.261719 C 37.734375 39.261719 37.40625 39.308594 37.171875 39.527344 C 37.015625 39.402344 36.855469 39.1875 36.855469 39.050781 C 36.855469 38.847656 36.980469 38.828125 37.148438 38.828125 C 37.230469 38.828125 37.308594 38.84375 37.417969 38.855469 C 37.625 38.886719 37.9375 38.933594 38.578125 38.933594 L 38.617188 38.933594 L 38.605469 38.894531 C 38.441406 38.429688 37.996094 37.753906 37.28125 36.882812 C 37.34375 36.648438 37.40625 36.496094 37.632812 36.496094 M 31.460938 38.894531 L 31.445312 38.933594 L 31.484375 38.933594 C 32.125 38.933594 32.4375 38.886719 32.644531 38.855469 C 32.753906 38.84375 32.832031 38.828125 32.914062 38.828125 C 33.078125 38.828125 33.207031 38.847656 33.207031 39.050781 C 33.207031 39.1875 33.046875 39.402344 32.890625 39.527344 C 32.65625 39.308594 32.328125 39.261719 31.847656 39.261719 C 31.625 39.261719 31.328125 39.304688 31.171875 39.324219 L 31.148438 39.328125 L 31.121094 39.332031 L 31.128906 39.40625 C 31.148438 39.539062 31.171875 39.703125 31.171875 39.929688 L 31.167969 40.128906 L 31.164062 40.382812 C 31.164062 40.925781 31.238281 41.234375 31.429688 41.46875 C 31.382812 41.488281 31.300781 41.503906 31.25 41.503906 C 30.910156 41.503906 30.8125 41.355469 30.8125 40.382812 C 30.8125 40.1875 30.804688 40.003906 30.796875 39.882812 L 30.785156 39.699219 L 30.746094 39.734375 C 30.242188 40.117188 29.726562 40.800781 29.695312 41.3125 C 29.542969 41.214844 29.378906 40.996094 29.378906 40.828125 C 29.378906 40.546875 29.800781 40.128906 30.285156 39.644531 L 30.5625 39.363281 L 30.601562 39.328125 L 30.507812 39.304688 C 30.402344 39.277344 30.210938 39.230469 30.042969 39.230469 C 29.5 39.230469 29.160156 39.332031 28.949219 39.5625 C 28.871094 39.453125 28.808594 39.195312 28.808594 39.046875 C 28.808594 38.949219 28.828125 38.882812 28.867188 38.84375 C 28.914062 38.796875 28.988281 38.796875 29.054688 38.796875 L 29.066406 38.796875 C 29.667969 38.796875 30.386719 38.90625 30.664062 38.949219 L 30.683594 38.953125 L 30.691406 38.941406 C 30.742188 38.875 31.886719 37.351562 32.183594 36.542969 C 32.25 36.515625 32.308594 36.496094 32.429688 36.496094 C 32.65625 36.496094 32.71875 36.648438 32.78125 36.882812 C 32.066406 37.753906 31.621094 38.429688 31.460938 38.894531 M 28.367188 25.21875 C 28.367188 24.078125 29.195312 23.179688 29.488281 22.925781 C 29.558594 22.941406 29.628906 22.957031 29.699219 22.972656 C 29.386719 23.351562 28.839844 23.984375 28.839844 24.824219 C 28.839844 26.492188 30.621094 27.941406 32.640625 27.941406 C 32.628906 28.085938 32.621094 28.234375 32.621094 28.390625 C 32.621094 28.636719 32.632812 28.863281 32.65625 29.078125 C 30.375 29.066406 28.367188 27.214844 28.367188 25.21875 M 43.671875 28.730469 C 44.695312 30.351562 45.496094 30.324219 46.707031 30.324219 C 45.707031 29.558594 45.046875 28.574219 44.730469 28.070312 L 42.859375 25.078125 C 42.675781 24.15625 42.199219 23.292969 41.484375 22.648438 C 41.722656 22.558594 41.925781 22.460938 42.042969 22.371094 C 40.824219 22.371094 39.613281 21.75 38.945312 21.75 C 38.519531 21.75 38.242188 22.007812 38.242188 22.34375 C 38.269531 22.722656 38.660156 23.105469 39.375 23.105469 C 39.539062 23.105469 39.746094 23.085938 39.972656 23.046875 C 40.363281 23.585938 40.675781 24.074219 40.675781 24.773438 C 40.675781 26.085938 39.109375 27.105469 37.527344 27.105469 C 37.4375 27.105469 37.351562 27.101562 37.265625 27.09375 C 37.121094 26.769531 36.644531 26.226562 36.644531 25.605469 C 36.644531 24.5625 37.324219 23.714844 37.324219 22.683594 C 37.324219 22.042969 37.011719 21.644531 36.890625 21.480469 C 37.085938 21.300781 37.296875 21.078125 37.347656 20.925781 C 37.234375 20.976562 37.101562 20.980469 36.90625 20.980469 C 36.148438 20.980469 35.527344 20.785156 34.925781 20.785156 C 34.582031 20.785156 34.492188 20.890625 34.492188 20.992188 C 34.492188 21.027344 34.496094 21.066406 34.507812 21.085938 C 34.378906 21.035156 34.257812 21.003906 34.113281 20.976562 C 33.9375 20.941406 33.746094 20.925781 33.542969 20.925781 C 32.808594 20.925781 32.550781 21.230469 32.550781 21.496094 C 32.550781 21.71875 32.726562 22.121094 32.925781 22.433594 C 33.210938 22.289062 33.550781 22.191406 33.707031 22.191406 C 34.097656 22.191406 34.441406 22.5625 34.625 23 C 34.363281 23.03125 34.3125 23.042969 34.050781 23.042969 C 33.335938 23.042969 32.851562 22.789062 32.753906 22.789062 C 32.742188 22.789062 32.722656 22.792969 32.722656 22.808594 C 32.722656 22.910156 32.925781 23.171875 33.324219 23.316406 C 33.847656 23.511719 34.636719 23.589844 34.765625 23.613281 C 34.765625 23.636719 34.632812 23.882812 34.484375 23.929688 C 34.453125 23.941406 34.429688 23.941406 34.390625 23.933594 C 33.84375 23.824219 33.691406 23.78125 32.996094 23.515625 C 32.972656 23.507812 32.960938 23.519531 32.960938 23.542969 C 32.960938 23.816406 33.671875 24.425781 34.3125 24.65625 C 33.777344 25.339844 33.113281 26.035156 32.800781 27.09375 C 32.710938 27.101562 32.625 27.105469 32.535156 27.105469 C 30.953125 27.105469 29.386719 26.085938 29.386719 24.773438 C 29.386719 24.074219 29.699219 23.585938 30.089844 23.046875 C 30.316406 23.085938 30.523438 23.105469 30.6875 23.105469 C 31.402344 23.105469 31.792969 22.722656 31.820312 22.34375 C 31.820312 22.007812 31.546875 21.75 31.117188 21.75 C 30.449219 21.75 29.242188 22.371094 28.019531 22.371094 C 28.140625 22.460938 28.339844 22.558594 28.578125 22.648438 C 27.863281 23.292969 27.386719 24.15625 27.203125 25.078125 L 25.335938 28.070312 C 25.019531 28.574219 24.355469 29.558594 23.355469 30.324219 C 24.5625 30.324219 25.367188 30.351562 26.390625 28.730469 L 27.347656 27.199219 C 27.421875 27.398438 27.507812 27.589844 27.609375 27.78125 L 25.703125 30.832031 C 25.386719 31.339844 24.726562 32.3125 23.722656 33.085938 C 24.933594 33.085938 25.734375 33.113281 26.757812 31.492188 L 28.398438 28.867188 C 28.523438 28.996094 28.652344 29.125 28.789062 29.246094 L 26.472656 32.953125 C 26.152344 33.460938 25.5 34.433594 24.492188 35.203125 C 25.703125 35.203125 26.503906 35.234375 27.527344 33.613281 L 29.785156 30 C 29.933594 30.09375 30.085938 30.183594 30.246094 30.269531 L 27.488281 34.683594 C 27.171875 35.1875 26.515625 36.15625 25.507812 36.933594 C 26.71875 36.933594 27.519531 36.960938 28.546875 35.34375 L 31.382812 30.800781 C 31.550781 30.863281 31.722656 30.925781 31.894531 30.980469 L 28.6875 36.113281 C 28.375 36.613281 27.703125 37.601562 26.710938 38.363281 C 27.917969 38.363281 28.722656 38.390625 29.742188 36.773438 L 33.160156 31.304688 C 33.195312 31.308594 33.230469 31.3125 33.265625 31.320312 C 33.359375 31.617188 33.421875 31.894531 33.421875 32.167969 C 33.421875 33.886719 32.296875 35.40625 30.941406 36.578125 C 31.027344 36.613281 31.179688 36.628906 31.316406 36.628906 C 31.597656 36.628906 31.777344 36.613281 31.90625 36.589844 C 31.589844 37.304688 30.917969 38.226562 30.578125 38.699219 C 30.132812 38.621094 29.488281 38.558594 29.066406 38.558594 C 28.625 38.558594 28.574219 38.816406 28.574219 39.046875 C 28.574219 39.449219 28.761719 39.769531 28.980469 39.945312 C 29.0625 39.742188 29.226562 39.46875 30.042969 39.46875 C 30.058594 39.46875 30.089844 39.46875 30.125 39.472656 C 29.886719 39.738281 29.140625 40.339844 29.140625 40.828125 C 29.140625 41.148438 29.492188 41.632812 29.960938 41.632812 C 29.933594 41.527344 29.933594 41.433594 29.933594 41.359375 C 29.933594 40.96875 30.285156 40.507812 30.578125 40.183594 C 30.570312 40.28125 30.574219 40.269531 30.574219 40.382812 C 30.574219 41.3125 30.660156 41.742188 31.25 41.742188 C 31.539062 41.742188 31.738281 41.582031 31.808594 41.535156 C 31.425781 41.179688 31.40625 40.902344 31.40625 40.382812 C 31.40625 40.246094 31.40625 40.113281 31.410156 39.929688 C 31.410156 39.808594 31.40625 39.652344 31.390625 39.535156 C 31.601562 39.507812 31.6875 39.507812 31.847656 39.507812 C 31.847656 39.507812 32.6875 39.441406 32.890625 39.878906 C 33.117188 39.667969 33.449219 39.375 33.449219 39.050781 C 33.449219 38.835938 33.347656 38.589844 32.914062 38.589844 C 32.75 38.589844 32.234375 38.691406 31.804688 38.691406 C 31.921875 38.433594 32.4375 37.679688 32.882812 37.132812 C 32.949219 37.34375 33.054688 37.574219 33.289062 37.761719 C 33.324219 37.410156 33.527344 36.296875 34.078125 35.644531 C 34.144531 36.085938 34.230469 36.535156 34.230469 37.488281 C 34.230469 39.800781 33.671875 41.511719 32.492188 41.835938 C 32.644531 42.105469 32.972656 42.34375 33.308594 42.34375 C 33.738281 42.34375 33.976562 41.855469 34.214844 41.394531 C 34.339844 41.734375 34.683594 42.570312 35.03125 42.570312 C 35.378906 42.570312 35.722656 41.734375 35.847656 41.394531 C 36.085938 41.855469 36.324219 42.34375 36.753906 42.34375 C 37.09375 42.34375 37.417969 42.105469 37.570312 41.835938 C 36.390625 41.511719 35.832031 39.800781 35.832031 37.488281 C 35.832031 36.535156 35.917969 36.085938 35.984375 35.644531 C 36.535156 36.296875 36.742188 37.410156 36.773438 37.761719 C 37.007812 37.574219 37.113281 37.34375 37.179688 37.132812 C 37.625 37.679688 38.140625 38.433594 38.257812 38.691406 C 37.828125 38.691406 37.3125 38.589844 37.148438 38.589844 C 36.714844 38.589844 36.613281 38.835938 36.613281 39.050781 C 36.613281 39.375 36.945312 39.667969 37.171875 39.878906 C 37.375 39.441406 38.214844 39.507812 38.214844 39.507812 C 38.378906 39.507812 38.464844 39.507812 38.675781 39.535156 C 38.65625 39.652344 38.652344 39.808594 38.65625 39.929688 C 38.65625 40.113281 38.65625 40.246094 38.65625 40.382812 C 38.65625 40.902344 38.636719 41.179688 38.253906 41.535156 C 38.324219 41.582031 38.523438 41.742188 38.8125 41.742188 C 39.402344 41.742188 39.488281 41.3125 39.488281 40.382812 C 39.488281 40.269531 39.492188 40.28125 39.484375 40.183594 C 39.777344 40.507812 40.128906 40.96875 40.128906 41.359375 C 40.128906 41.433594 40.132812 41.527344 40.101562 41.632812 C 40.570312 41.632812 40.921875 41.148438 40.921875 40.828125 C 40.921875 40.339844 40.175781 39.738281 39.9375 39.472656 C 39.976562 39.46875 40.003906 39.46875 40.019531 39.46875 C 40.835938 39.46875 41 39.742188 41.082031 39.945312 C 41.300781 39.769531 41.488281 39.449219 41.488281 39.046875 C 41.488281 38.816406 41.4375 38.558594 40.996094 38.558594 C 40.574219 38.558594 39.929688 38.621094 39.484375 38.699219 C 39.144531 38.226562 38.472656 37.304688 38.15625 36.589844 C 38.285156 36.613281 38.464844 36.628906 38.746094 36.628906 C 38.886719 36.628906 39.035156 36.613281 39.121094 36.578125 C 37.769531 35.40625 36.640625 33.886719 36.640625 32.167969 C 36.640625 31.894531 36.703125 31.617188 36.796875 31.320312 C 36.832031 31.3125 36.867188 31.308594 36.902344 31.304688 L 40.320312 36.773438 C 41.34375 38.390625 42.144531 38.363281 43.355469 38.363281 C 42.359375 37.601562 41.6875 36.613281 41.375 36.113281 L 38.167969 30.980469 C 38.34375 30.925781 38.511719 30.863281 38.679688 30.800781 L 41.519531 35.34375 C 42.542969 36.960938 43.34375 36.933594 44.554688 36.933594 C 43.546875 36.15625 42.894531 35.1875 42.574219 34.683594 L 39.820312 30.269531 C 39.976562 30.183594 40.128906 30.09375 40.277344 30 L 42.535156 33.613281 C 43.558594 35.234375 44.359375 35.203125 45.570312 35.203125 C 44.5625 34.433594 43.910156 33.460938 43.589844 32.953125 L 41.273438 29.246094 C 41.410156 29.125 41.539062 28.996094 41.660156 28.867188 L 43.304688 31.492188 C 44.328125 33.113281 45.128906 33.085938 46.339844 33.085938 C 45.335938 32.3125 44.679688 31.339844 44.359375 30.832031 L 42.453125 27.78125 C 42.554688 27.589844 42.644531 27.398438 42.714844 27.199219 Z M 43.671875 28.730469 "/>
<path fill-rule="nonzero" fill="rgb(100%, 100%, 100%)" fill-opacity="1" d="M 52.78125 41.785156 L 56.28125 41.785156 L 56.28125 21.785156 L 52.78125 21.785156 Z M 52.78125 41.785156 "/>
<path fill-rule="nonzero" fill="rgb(100%, 100%, 100%)" fill-opacity="1" d="M 52.78125 44.285156 L 56.28125 44.285156 L 56.28125 43.035156 L 52.78125 43.035156 Z M 52.78125 44.285156 "/>
<path fill-rule="nonzero" fill="rgb(100%, 100%, 100%)" fill-opacity="1" d="M 52.78125 46.785156 L 56.28125 46.785156 L 56.28125 45.535156 L 52.78125 45.535156 Z M 52.78125 46.785156 "/>
<path fill-rule="nonzero" fill="rgb(100%, 100%, 100%)" fill-opacity="1" d="M 52.78125 49.285156 L 56.28125 49.285156 L 56.28125 48.035156 L 52.78125 48.035156 Z M 52.78125 49.285156 "/>
<path fill-rule="nonzero" fill="rgb(100%, 100%, 100%)" fill-opacity="1" d="M 52.78125 51.785156 L 56.28125 51.785156 L 56.28125 50.535156 L 52.78125 50.535156 Z M 52.78125 51.785156 "/>
<path fill-rule="nonzero" fill="rgb(100%, 100%, 100%)" fill-opacity="1" d="M 52.78125 54.285156 L 56.28125 54.285156 L 56.28125 53.035156 L 52.78125 53.035156 Z M 52.78125 54.285156 "/>
<path fill-rule="nonzero" fill="rgb(100%, 100%, 100%)" fill-opacity="1" d="M 52.78125 56.785156 L 56.28125 56.785156 L 56.28125 55.535156 L 52.78125 55.535156 Z M 52.78125 56.785156 "/>
<path fill-rule="nonzero" fill="rgb(100%, 100%, 100%)" fill-opacity="1" d="M 52.78125 59.285156 L 56.28125 59.285156 L 56.28125 58.035156 L 52.78125 58.035156 Z M 52.78125 59.285156 "/>
<path fill-rule="nonzero" fill="rgb(100%, 100%, 100%)" fill-opacity="1" d="M 52.78125 61.785156 L 56.28125 61.785156 L 56.28125 60.535156 L 52.78125 60.535156 Z M 52.78125 61.785156 "/>
<path fill-rule="nonzero" fill="rgb(100%, 100%, 100%)" fill-opacity="1" d="M 52.78125 81.785156 L 56.28125 81.785156 L 56.28125 81.410156 L 52.78125 81.410156 Z M 52.78125 81.785156 "/>
<path fill-rule="nonzero" fill="rgb(100%, 100%, 100%)" fill-opacity="1" d="M 52.78125 79.785156 L 56.28125 79.785156 L 56.28125 79.410156 L 52.78125 79.410156 Z M 52.78125 79.785156 "/>
<path fill-rule="nonzero" fill="rgb(100%, 100%, 100%)" fill-opacity="1" d="M 52.78125 77.785156 L 56.28125 77.785156 L 56.28125 77.410156 L 52.78125 77.410156 Z M 52.78125 77.785156 "/>
<path fill-rule="nonzero" fill="rgb(100%, 100%, 100%)" fill-opacity="1" d="M 52.78125 75.785156 L 56.28125 75.785156 L 56.28125 75.410156 L 52.78125 75.410156 Z M 52.78125 75.785156 "/>
<path fill-rule="nonzero" fill="rgb(100%, 100%, 100%)" fill-opacity="1" d="M 52.78125 73.785156 L 56.28125 73.785156 L 56.28125 73.410156 L 52.78125 73.410156 Z M 52.78125 73.785156 "/>
<path fill-rule="nonzero" fill="rgb(100%, 100%, 100%)" fill-opacity="1" d="M 52.78125 71.785156 L 56.28125 71.785156 L 56.28125 71.410156 L 52.78125 71.410156 Z M 52.78125 71.785156 "/>
<path fill-rule="nonzero" fill="rgb(100%, 100%, 100%)" fill-opacity="1" d="M 52.78125 69.785156 L 56.28125 69.785156 L 56.28125 69.410156 L 52.78125 69.410156 Z M 52.78125 69.785156 "/>
<path fill-rule="nonzero" fill="rgb(100%, 100%, 100%)" fill-opacity="1" d="M 52.78125 67.785156 L 56.28125 67.785156 L 56.28125 67.410156 L 52.78125 67.410156 Z M 52.78125 67.785156 "/>
<path fill-rule="nonzero" fill="rgb(100%, 100%, 100%)" fill-opacity="1" d="M 52.78125 65.785156 L 56.28125 65.785156 L 56.28125 65.410156 L 52.78125 65.410156 Z M 52.78125 65.785156 "/>
<path fill-rule="nonzero" fill="rgb(100%, 100%, 100%)" fill-opacity="1" d="M 52.78125 63.785156 L 56.28125 63.785156 L 56.28125 63.410156 L 52.78125 63.410156 Z M 52.78125 63.785156 "/>
<path fill-rule="nonzero" fill="rgb(100%, 100%, 100%)" fill-opacity="1" d="M 68.574219 23.605469 C 68.574219 22.320312 67.792969 21.492188 65.824219 21.492188 L 64.230469 21.492188 L 64.230469 29.773438 L 65.921875 29.773438 C 67.902344 29.773438 68.789062 28.824219 68.789062 27.527344 C 68.789062 26.425781 68.082031 25.703125 67.230469 25.535156 L 67.230469 25.511719 C 67.949219 25.320312 68.574219 24.757812 68.574219 23.605469 Z M 67.515625 23.640625 C 67.515625 24.589844 66.929688 25.175781 65.8125 25.175781 L 65.273438 25.175781 L 65.273438 22.320312 L 65.824219 22.320312 C 66.988281 22.320312 67.515625 22.886719 67.515625 23.640625 Z M 67.671875 27.457031 C 67.671875 28.40625 67.144531 28.910156 65.921875 28.910156 L 65.273438 28.910156 L 65.273438 26.003906 L 65.980469 26.003906 C 67.0625 26.003906 67.671875 26.570312 67.671875 27.457031 Z M 73.191406 29.125 L 73.21875 29.125 L 73.21875 29.773438 L 74.105469 29.773438 L 74.105469 24.011719 L 73.132812 24.011719 L 73.132812 28.417969 C 72.941406 28.65625 72.558594 29.054688 71.96875 29.054688 C 71.320312 29.054688 71.007812 28.667969 71.007812 27.722656 L 71.007812 24.011719 L 70.035156 24.011719 L 70.035156 27.792969 C 70.035156 29.351562 70.671875 29.917969 71.691406 29.917969 C 72.570312 29.917969 73.085938 29.328125 73.191406 29.125 Z M 77.742188 24.695312 C 78.414062 24.695312 78.738281 25.09375 78.738281 26.066406 L 78.738281 29.773438 L 79.710938 29.773438 L 79.710938 25.992188 C 79.710938 24.433594 79.0625 23.867188 78.027344 23.867188 C 77.128906 23.867188 76.613281 24.457031 76.503906 24.660156 L 76.480469 24.660156 L 76.480469 24.011719 L 75.59375 24.011719 L 75.59375 29.773438 L 76.566406 29.773438 L 76.566406 25.332031 C 76.757812 25.09375 77.152344 24.695312 77.742188 24.695312 Z M 83.175781 29.054688 C 82.503906 29.054688 81.90625 28.523438 81.90625 26.941406 C 81.90625 25.308594 82.613281 24.734375 83.511719 24.734375 C 83.859375 24.734375 84.089844 24.828125 84.257812 24.9375 L 84.257812 28.488281 C 84.125 28.679688 83.789062 29.054688 83.175781 29.054688 Z M 84.316406 29.160156 L 84.339844 29.160156 L 84.339844 29.773438 L 85.230469 29.773438 L 85.230469 21.179688 L 84.257812 21.289062 L 84.257812 24.050781 C 84.078125 23.976562 83.8125 23.90625 83.441406 23.90625 C 82.21875 23.90625 80.898438 24.648438 80.898438 26.976562 C 80.898438 29.078125 81.820312 29.917969 82.914062 29.917969 C 83.824219 29.917969 84.207031 29.339844 84.316406 29.160156 Z M 88.589844 24.660156 C 89.199219 24.660156 89.523438 25.128906 89.523438 25.921875 C 89.523438 26.101562 89.511719 26.257812 89.5 26.339844 L 87.414062 26.339844 C 87.460938 25.261719 87.90625 24.660156 88.589844 24.660156 Z M 90.53125 29.234375 L 90.171875 28.550781 C 90.039062 28.679688 89.644531 29.054688 88.960938 29.054688 C 87.988281 29.054688 87.460938 28.417969 87.402344 27.074219 L 90.339844 27.074219 C 90.378906 26.796875 90.414062 26.449219 90.414062 25.957031 C 90.414062 24.578125 89.742188 23.867188 88.648438 23.867188 C 87.449219 23.867188 86.453125 24.78125 86.453125 26.820312 C 86.453125 28.992188 87.363281 29.917969 88.816406 29.917969 C 89.910156 29.917969 90.378906 29.402344 90.53125 29.234375 Z M 94.613281 24.480469 C 94.421875 24.289062 94.035156 23.867188 93.148438 23.867188 C 92.214844 23.867188 91.480469 24.503906 91.480469 25.355469 C 91.480469 26.148438 91.914062 26.617188 92.632812 27.074219 L 92.992188 27.300781 C 93.546875 27.648438 93.832031 27.839844 93.832031 28.394531 C 93.832031 28.765625 93.519531 29.054688 92.945312 29.054688 C 92.320312 29.054688 91.960938 28.679688 91.78125 28.488281 L 91.3125 29.257812 C 91.539062 29.496094 92.007812 29.917969 92.933594 29.917969 C 94.109375 29.917969 94.769531 29.210938 94.769531 28.296875 C 94.769531 27.445312 94.289062 26.976562 93.507812 26.507812 L 93.148438 26.292969 C 92.632812 25.980469 92.394531 25.742188 92.394531 25.308594 C 92.394531 24.972656 92.667969 24.695312 93.183594 24.695312 C 93.726562 24.695312 94.0625 25.03125 94.191406 25.175781 Z M 98.070312 24.734375 C 98.667969 24.734375 98.933594 25.128906 98.933594 26.066406 L 98.933594 29.773438 L 99.90625 29.773438 L 99.90625 25.910156 C 99.90625 25.691406 99.894531 25.488281 99.855469 25.308594 C 100.074219 25.058594 100.433594 24.734375 100.960938 24.734375 C 101.609375 24.734375 101.957031 25.128906 101.957031 26.066406 L 101.957031 29.773438 L 102.929688 29.773438 L 102.929688 25.910156 C 102.929688 24.539062 102.328125 23.867188 101.175781 23.867188 C 100.433594 23.867188 99.90625 24.3125 99.652344 24.636719 C 99.390625 24.121094 98.910156 23.867188 98.261719 23.867188 C 97.46875 23.867188 96.976562 24.398438 96.820312 24.660156 L 96.796875 24.660156 L 96.796875 24.011719 L 95.910156 24.011719 L 95.910156 29.773438 L 96.882812 29.773438 L 96.882812 25.332031 C 97.050781 25.128906 97.421875 24.734375 98.070312 24.734375 Z M 104.871094 22.621094 C 105.257812 22.621094 105.519531 22.332031 105.519531 21.925781 C 105.519531 21.527344 105.257812 21.242188 104.871094 21.242188 C 104.476562 21.242188 104.214844 21.527344 104.214844 21.925781 C 104.214844 22.332031 104.476562 22.621094 104.871094 22.621094 Z M 105.351562 24.011719 L 104.382812 24.011719 L 104.382812 29.773438 L 105.351562 29.773438 Z M 108.988281 24.695312 C 109.660156 24.695312 109.984375 25.09375 109.984375 26.066406 L 109.984375 29.773438 L 110.957031 29.773438 L 110.957031 25.992188 C 110.957031 24.433594 110.308594 23.867188 109.277344 23.867188 C 108.375 23.867188 107.859375 24.457031 107.753906 24.660156 L 107.730469 24.660156 L 107.730469 24.011719 L 106.839844 24.011719 L 106.839844 29.773438 L 107.8125 29.773438 L 107.8125 25.332031 C 108.003906 25.09375 108.402344 24.695312 108.988281 24.695312 Z M 112.902344 22.621094 C 113.285156 22.621094 113.550781 22.332031 113.550781 21.925781 C 113.550781 21.527344 113.285156 21.242188 112.902344 21.242188 C 112.503906 21.242188 112.242188 21.527344 112.242188 21.925781 C 112.242188 22.332031 112.503906 22.621094 112.902344 22.621094 Z M 113.382812 24.011719 L 112.410156 24.011719 L 112.410156 29.773438 L 113.382812 29.773438 Z M 117.773438 24.480469 C 117.582031 24.289062 117.195312 23.867188 116.308594 23.867188 C 115.371094 23.867188 114.640625 24.503906 114.640625 25.355469 C 114.640625 26.148438 115.074219 26.617188 115.792969 27.074219 L 116.152344 27.300781 C 116.703125 27.648438 116.992188 27.839844 116.992188 28.394531 C 116.992188 28.765625 116.679688 29.054688 116.105469 29.054688 C 115.480469 29.054688 115.121094 28.679688 114.941406 28.488281 L 114.472656 29.257812 C 114.699219 29.496094 115.167969 29.917969 116.09375 29.917969 C 117.269531 29.917969 117.929688 29.210938 117.929688 28.296875 C 117.929688 27.445312 117.449219 26.976562 116.667969 26.507812 L 116.308594 26.292969 C 115.792969 25.980469 115.554688 25.742188 115.554688 25.308594 C 115.554688 24.972656 115.828125 24.695312 116.34375 24.695312 C 116.886719 24.695312 117.222656 25.03125 117.351562 25.175781 Z M 121.683594 29.664062 L 121.554688 28.886719 C 121.457031 28.945312 121.242188 29.054688 120.953125 29.054688 C 120.460938 29.054688 120.269531 28.8125 120.269531 27.996094 L 120.269531 24.804688 L 121.527344 24.804688 L 121.648438 24.011719 L 120.269531 24.011719 L 120.269531 22.40625 L 119.40625 22.40625 L 119.296875 24.011719 L 118.601562 24.15625 L 118.601562 24.804688 L 119.296875 24.804688 L 119.296875 28.128906 C 119.296875 29.402344 119.800781 29.917969 120.785156 29.917969 C 121.300781 29.917969 121.601562 29.726562 121.683594 29.664062 Z M 124.421875 24.660156 C 125.03125 24.660156 125.355469 25.128906 125.355469 25.921875 C 125.355469 26.101562 125.34375 26.257812 125.332031 26.339844 L 123.246094 26.339844 C 123.292969 25.261719 123.738281 24.660156 124.421875 24.660156 Z M 126.363281 29.234375 L 126.003906 28.550781 C 125.871094 28.679688 125.476562 29.054688 124.792969 29.054688 C 123.820312 29.054688 123.292969 28.417969 123.234375 27.074219 L 126.171875 27.074219 C 126.207031 26.796875 126.246094 26.449219 126.246094 25.957031 C 126.246094 24.578125 125.574219 23.867188 124.480469 23.867188 C 123.28125 23.867188 122.285156 24.78125 122.285156 26.820312 C 122.285156 28.992188 123.195312 29.917969 124.648438 29.917969 C 125.742188 29.917969 126.207031 29.402344 126.363281 29.234375 Z M 130.191406 24 C 130.097656 23.964844 129.941406 23.90625 129.664062 23.90625 C 128.933594 23.90625 128.621094 24.335938 128.453125 24.792969 L 128.429688 24.792969 L 128.429688 24.011719 L 127.539062 24.011719 L 127.539062 29.773438 L 128.511719 29.773438 L 128.511719 25.550781 C 128.65625 25.164062 128.980469 24.769531 129.59375 24.769531 C 129.855469 24.769531 130.023438 24.839844 130.074219 24.863281 Z M 131.523438 22.621094 C 131.910156 22.621094 132.171875 22.332031 132.171875 21.925781 C 132.171875 21.527344 131.910156 21.242188 131.523438 21.242188 C 131.128906 21.242188 130.863281 21.527344 130.863281 21.925781 C 130.863281 22.332031 131.128906 22.621094 131.523438 22.621094 Z M 132.003906 24.011719 L 131.03125 24.011719 L 131.03125 29.773438 L 132.003906 29.773438 Z M 136.613281 29.125 L 136.636719 29.125 L 136.636719 29.773438 L 137.523438 29.773438 L 137.523438 24.011719 L 136.554688 24.011719 L 136.554688 28.417969 C 136.359375 28.65625 135.976562 29.054688 135.390625 29.054688 C 134.742188 29.054688 134.429688 28.667969 134.429688 27.722656 L 134.429688 24.011719 L 133.457031 24.011719 L 133.457031 27.792969 C 133.457031 29.351562 134.09375 29.917969 135.113281 29.917969 C 135.988281 29.917969 136.503906 29.328125 136.613281 29.125 Z M 141.171875 24.734375 C 141.773438 24.734375 142.035156 25.128906 142.035156 26.066406 L 142.035156 29.773438 L 143.007812 29.773438 L 143.007812 25.910156 C 143.007812 25.691406 142.996094 25.488281 142.960938 25.308594 C 143.175781 25.058594 143.535156 24.734375 144.066406 24.734375 C 144.710938 24.734375 145.0625 25.128906 145.0625 26.066406 L 145.0625 29.773438 L 146.03125 29.773438 L 146.03125 25.910156 C 146.03125 24.539062 145.433594 23.867188 144.28125 23.867188 C 143.535156 23.867188 143.007812 24.3125 142.757812 24.636719 C 142.492188 24.121094 142.011719 23.867188 141.363281 23.867188 C 140.574219 23.867188 140.082031 24.398438 139.925781 24.660156 L 139.902344 24.660156 L 139.902344 24.011719 L 139.011719 24.011719 L 139.011719 29.773438 L 139.984375 29.773438 L 139.984375 25.332031 C 140.152344 25.128906 140.523438 24.734375 141.171875 24.734375 Z M 141.171875 24.734375 "/>
<path fill-rule="nonzero" fill="rgb(100%, 100%, 100%)" fill-opacity="1" d="M 66.449219 36.804688 L 66.570312 36.011719 L 65.273438 36.011719 L 65.273438 34.980469 C 65.273438 34.226562 65.523438 33.972656 65.980469 33.972656 C 66.234375 33.972656 66.414062 34.070312 66.507812 34.128906 L 66.714844 33.324219 C 66.617188 33.265625 66.304688 33.109375 65.898438 33.109375 C 65.046875 33.109375 64.300781 33.613281 64.300781 34.871094 L 64.300781 36.023438 L 63.605469 36.15625 L 63.605469 36.804688 L 64.300781 36.804688 L 64.300781 41.773438 L 65.273438 41.773438 L 65.273438 36.804688 Z M 70.902344 34.355469 C 70.902344 33.984375 70.648438 33.746094 70.324219 33.746094 C 70 33.746094 69.75 33.984375 69.75 34.355469 C 69.75 34.730469 70 34.96875 70.324219 34.96875 C 70.648438 34.96875 70.902344 34.730469 70.902344 34.355469 Z M 69.054688 34.355469 C 69.054688 33.984375 68.800781 33.746094 68.476562 33.746094 C 68.152344 33.746094 67.902344 33.984375 67.902344 34.355469 C 67.902344 34.730469 68.152344 34.96875 68.476562 34.96875 C 68.800781 34.96875 69.054688 34.730469 69.054688 34.355469 Z M 70.527344 41.125 L 70.554688 41.125 L 70.554688 41.773438 L 71.441406 41.773438 L 71.441406 36.011719 L 70.46875 36.011719 L 70.46875 40.417969 C 70.277344 40.65625 69.894531 41.054688 69.304688 41.054688 C 68.65625 41.054688 68.34375 40.667969 68.34375 39.722656 L 68.34375 36.011719 L 67.371094 36.011719 L 67.371094 39.792969 C 67.371094 41.351562 68.007812 41.917969 69.027344 41.917969 C 69.90625 41.917969 70.421875 41.328125 70.527344 41.125 Z M 75.582031 36 C 75.484375 35.964844 75.328125 35.90625 75.054688 35.90625 C 74.320312 35.90625 74.007812 36.335938 73.839844 36.792969 L 73.816406 36.792969 L 73.816406 36.011719 L 72.929688 36.011719 L 72.929688 41.773438 L 73.902344 41.773438 L 73.902344 37.550781 C 74.046875 37.164062 74.367188 36.769531 74.980469 36.769531 C 75.246094 36.769531 75.414062 36.839844 75.460938 36.863281 Z M 80.332031 41.773438 C 82.863281 41.773438 84.4375 40.464844 84.4375 37.429688 C 84.4375 34.585938 83.152344 33.492188 80.453125 33.492188 L 78.894531 33.492188 L 78.894531 41.773438 Z M 80.453125 34.320312 C 82.289062 34.320312 83.320312 35.089844 83.320312 37.429688 C 83.320312 39.960938 82.242188 40.910156 80.332031 40.910156 L 79.9375 40.910156 L 79.9375 34.320312 Z M 86.238281 34.621094 C 86.621094 34.621094 86.886719 34.332031 86.886719 33.925781 C 86.886719 33.527344 86.621094 33.242188 86.238281 33.242188 C 85.839844 33.242188 85.578125 33.527344 85.578125 33.925781 C 85.578125 34.332031 85.839844 34.621094 86.238281 34.621094 Z M 86.71875 36.011719 L 85.746094 36.011719 L 85.746094 41.773438 L 86.71875 41.773438 Z M 90.941406 37.800781 C 90.941406 38.628906 90.484375 38.953125 89.933594 38.953125 C 89.40625 38.953125 88.9375 38.628906 88.9375 37.800781 C 88.9375 36.972656 89.40625 36.648438 89.957031 36.648438 C 90.484375 36.648438 90.941406 36.972656 90.941406 37.800781 Z M 92.355469 42.21875 C 92.355469 41.125 91.539062 40.691406 90.449219 40.691406 L 89.71875 40.691406 C 89.296875 40.691406 89.128906 40.523438 89.128906 40.285156 C 89.128906 39.984375 89.40625 39.828125 89.597656 39.746094 C 89.691406 39.757812 89.789062 39.757812 89.898438 39.757812 C 91.023438 39.757812 91.890625 39.023438 91.890625 37.800781 C 91.890625 37.417969 91.792969 37.058594 91.613281 36.769531 L 92.332031 36.769531 L 92.464844 36.011719 L 90.714844 36.011719 C 90.472656 35.917969 90.222656 35.867188 89.945312 35.867188 C 88.863281 35.867188 87.988281 36.503906 87.988281 37.800781 C 87.988281 38.714844 88.386719 39.289062 88.972656 39.566406 L 88.972656 39.589844 C 88.828125 39.660156 88.277344 39.902344 88.277344 40.523438 C 88.277344 40.886719 88.410156 41.148438 88.648438 41.328125 L 88.648438 41.351562 C 88.386719 41.496094 87.6875 41.90625 87.6875 42.757812 C 87.6875 43.753906 88.347656 44.316406 89.574219 44.316406 C 91.277344 44.316406 92.355469 43.453125 92.355469 42.21875 Z M 89.644531 43.488281 C 88.960938 43.488281 88.625 43.175781 88.625 42.566406 C 88.625 41.988281 88.9375 41.714844 89.214844 41.558594 C 89.34375 41.582031 89.5 41.59375 89.65625 41.59375 L 90.390625 41.59375 C 90.976562 41.59375 91.359375 41.808594 91.359375 42.359375 C 91.359375 42.949219 90.820312 43.488281 89.644531 43.488281 Z M 93.929688 34.621094 C 94.3125 34.621094 94.578125 34.332031 94.578125 33.925781 C 94.578125 33.527344 94.3125 33.242188 93.929688 33.242188 C 93.53125 33.242188 93.269531 33.527344 93.269531 33.925781 C 93.269531 34.332031 93.53125 34.621094 93.929688 34.621094 Z M 94.410156 36.011719 L 93.4375 36.011719 L 93.4375 41.773438 L 94.410156 41.773438 Z M 98.511719 41.664062 L 98.382812 40.886719 C 98.285156 40.945312 98.070312 41.054688 97.78125 41.054688 C 97.289062 41.054688 97.097656 40.8125 97.097656 39.996094 L 97.097656 36.804688 L 98.355469 36.804688 L 98.476562 36.011719 L 97.097656 36.011719 L 97.097656 34.40625 L 96.234375 34.40625 L 96.125 36.011719 L 95.429688 36.15625 L 95.429688 36.804688 L 96.125 36.804688 L 96.125 40.128906 C 96.125 41.402344 96.628906 41.917969 97.613281 41.917969 C 98.128906 41.917969 98.429688 41.726562 98.511719 41.664062 Z M 101.824219 38.53125 L 101.523438 38.53125 C 100.21875 38.53125 99.125 38.976562 99.125 40.308594 C 99.125 41.246094 99.785156 41.917969 100.660156 41.917969 C 101.394531 41.917969 101.742188 41.425781 101.871094 41.136719 L 101.898438 41.136719 C 101.910156 41.425781 101.921875 41.605469 101.933594 41.773438 L 102.855469 41.773438 C 102.832031 41.617188 102.785156 41.066406 102.785156 40.574219 L 102.785156 37.945312 C 102.785156 36.492188 102.160156 35.867188 100.984375 35.867188 C 100.0625 35.867188 99.507812 36.3125 99.257812 36.566406 L 99.664062 37.214844 C 99.882812 37.019531 100.265625 36.695312 100.839844 36.695312 C 101.464844 36.695312 101.824219 37.007812 101.824219 37.980469 Z M 101.824219 39.253906 L 101.824219 40.523438 C 101.703125 40.703125 101.429688 41.089844 100.863281 41.089844 C 100.386719 41.089844 100.097656 40.789062 100.097656 40.199219 C 100.097656 39.566406 100.589844 39.300781 101.511719 39.265625 Z M 105.207031 33.179688 L 104.238281 33.289062 L 104.238281 40.511719 C 104.238281 41.53125 104.679688 41.882812 105.328125 41.882812 C 105.761719 41.882812 106.011719 41.773438 106.109375 41.726562 L 106.023438 41.003906 C 105.964844 41.027344 105.84375 41.078125 105.664062 41.078125 C 105.328125 41.078125 105.207031 40.910156 105.207031 40.429688 Z M 108.855469 36.660156 C 109.46875 36.660156 109.792969 37.128906 109.792969 37.921875 C 109.792969 38.101562 109.78125 38.257812 109.769531 38.339844 L 107.679688 38.339844 C 107.730469 37.261719 108.171875 36.660156 108.855469 36.660156 Z M 110.800781 41.234375 L 110.441406 40.550781 C 110.308594 40.679688 109.914062 41.054688 109.230469 41.054688 C 108.257812 41.054688 107.730469 40.417969 107.667969 39.074219 L 110.609375 39.074219 C 110.644531 38.796875 110.679688 38.449219 110.679688 37.957031 C 110.679688 36.578125 110.007812 35.867188 108.917969 35.867188 C 107.71875 35.867188 106.722656 36.78125 106.722656 38.820312 C 106.722656 40.992188 107.632812 41.917969 109.085938 41.917969 C 110.175781 41.917969 110.644531 41.402344 110.800781 41.234375 Z M 114.882812 36.480469 C 114.6875 36.289062 114.304688 35.867188 113.417969 35.867188 C 112.480469 35.867188 111.75 36.503906 111.75 37.355469 C 111.75 38.148438 112.179688 38.617188 112.902344 39.074219 L 113.261719 39.300781 C 113.8125 39.648438 114.101562 39.839844 114.101562 40.394531 C 114.101562 40.765625 113.789062 41.054688 113.210938 41.054688 C 112.589844 41.054688 112.230469 40.679688 112.050781 40.488281 L 111.582031 41.257812 C 111.808594 41.496094 112.277344 41.917969 113.199219 41.917969 C 114.375 41.917969 115.035156 41.210938 115.035156 40.296875 C 115.035156 39.445312 114.558594 38.976562 113.777344 38.507812 L 113.417969 38.292969 C 112.902344 37.980469 112.660156 37.742188 112.660156 37.308594 C 112.660156 36.972656 112.9375 36.695312 113.453125 36.695312 C 113.992188 36.695312 114.328125 37.03125 114.460938 37.175781 Z M 121.839844 41.125 L 121.863281 41.125 L 121.863281 41.773438 L 122.753906 41.773438 L 122.753906 36.011719 L 121.78125 36.011719 L 121.78125 40.417969 C 121.589844 40.65625 121.203125 41.054688 120.617188 41.054688 C 119.96875 41.054688 119.65625 40.667969 119.65625 39.722656 L 119.65625 36.011719 L 118.683594 36.011719 L 118.683594 39.792969 C 118.683594 41.351562 119.320312 41.917969 120.339844 41.917969 C 121.21875 41.917969 121.734375 41.328125 121.839844 41.125 Z M 126.390625 36.695312 C 127.0625 36.695312 127.386719 37.09375 127.386719 38.066406 L 127.386719 41.773438 L 128.355469 41.773438 L 128.355469 37.992188 C 128.355469 36.433594 127.707031 35.867188 126.675781 35.867188 C 125.777344 35.867188 125.261719 36.457031 125.152344 36.660156 L 125.128906 36.660156 L 125.128906 36.011719 L 124.242188 36.011719 L 124.242188 41.773438 L 125.210938 41.773438 L 125.210938 37.332031 C 125.40625 37.09375 125.800781 36.695312 126.390625 36.695312 Z M 131.824219 41.054688 C 131.152344 41.054688 130.554688 40.523438 130.554688 38.941406 C 130.554688 37.308594 131.261719 36.734375 132.160156 36.734375 C 132.507812 36.734375 132.738281 36.828125 132.90625 36.9375 L 132.90625 40.488281 C 132.773438 40.679688 132.4375 41.054688 131.824219 41.054688 Z M 132.964844 41.160156 L 132.988281 41.160156 L 132.988281 41.773438 L 133.875 41.773438 L 133.875 33.179688 L 132.90625 33.289062 L 132.90625 36.050781 C 132.726562 35.976562 132.460938 35.90625 132.089844 35.90625 C 130.863281 35.90625 129.542969 36.648438 129.542969 38.976562 C 129.542969 41.078125 130.46875 41.917969 131.5625 41.917969 C 132.472656 41.917969 132.855469 41.339844 132.964844 41.160156 Z M 132.964844 41.160156 "/>
<path fill-rule="nonzero" fill="rgb(100%, 100%, 100%)" fill-opacity="1" d="M 67.792969 45.972656 C 67.613281 45.828125 67.085938 45.347656 65.980469 45.347656 C 64.683594 45.347656 63.855469 46.164062 63.855469 47.234375 C 63.855469 48.371094 64.386719 48.925781 65.296875 49.691406 L 65.96875 50.257812 C 66.664062 50.84375 67 51.230469 67 51.949219 C 67 52.511719 66.546875 52.980469 65.730469 52.980469 C 64.878906 52.980469 64.324219 52.453125 64.121094 52.261719 L 63.699219 53.171875 C 63.941406 53.390625 64.566406 53.917969 65.753906 53.917969 C 67.242188 53.917969 68.058594 53.066406 68.058594 51.804688 C 68.058594 50.726562 67.445312 50.078125 66.664062 49.429688 L 65.992188 48.878906 C 65.238281 48.265625 64.890625 47.855469 64.890625 47.210938 C 64.890625 46.691406 65.261719 46.25 65.980469 46.25 C 66.75 46.25 67.230469 46.632812 67.359375 46.765625 Z M 71.742188 53.664062 L 71.609375 52.886719 C 71.511719 52.945312 71.296875 53.054688 71.007812 53.054688 C 70.515625 53.054688 70.324219 52.8125 70.324219 51.996094 L 70.324219 48.804688 L 71.585938 48.804688 L 71.703125 48.011719 L 70.324219 48.011719 L 70.324219 46.40625 L 69.460938 46.40625 L 69.351562 48.011719 L 68.65625 48.15625 L 68.65625 48.804688 L 69.351562 48.804688 L 69.351562 52.128906 C 69.351562 53.402344 69.855469 53.917969 70.839844 53.917969 C 71.355469 53.917969 71.65625 53.726562 71.742188 53.664062 Z M 75.054688 50.53125 L 74.753906 50.53125 C 73.445312 50.53125 72.351562 50.976562 72.351562 52.308594 C 72.351562 53.246094 73.011719 53.917969 73.890625 53.917969 C 74.621094 53.917969 74.96875 53.425781 75.101562 53.136719 L 75.125 53.136719 C 75.136719 53.425781 75.148438 53.605469 75.160156 53.773438 L 76.085938 53.773438 C 76.0625 53.617188 76.011719 53.066406 76.011719 52.574219 L 76.011719 49.945312 C 76.011719 48.492188 75.390625 47.867188 74.214844 47.867188 C 73.289062 47.867188 72.738281 48.3125 72.484375 48.566406 L 72.894531 49.214844 C 73.109375 49.019531 73.492188 48.695312 74.070312 48.695312 C 74.691406 48.695312 75.054688 49.007812 75.054688 49.980469 Z M 75.054688 51.253906 L 75.054688 52.523438 C 74.933594 52.703125 74.65625 53.089844 74.09375 53.089844 C 73.613281 53.089844 73.324219 52.789062 73.324219 52.199219 C 73.324219 51.566406 73.816406 51.300781 74.742188 51.265625 Z M 79.839844 50.53125 L 79.539062 50.53125 C 78.234375 50.53125 77.140625 50.976562 77.140625 52.308594 C 77.140625 53.246094 77.800781 53.917969 78.675781 53.917969 C 79.410156 53.917969 79.757812 53.425781 79.890625 53.136719 L 79.914062 53.136719 C 79.925781 53.425781 79.9375 53.605469 79.949219 53.773438 L 80.871094 53.773438 C 80.847656 53.617188 80.800781 53.066406 80.800781 52.574219 L 80.800781 49.945312 C 80.800781 48.492188 80.175781 47.867188 79 47.867188 C 78.078125 47.867188 77.523438 48.3125 77.273438 48.566406 L 77.679688 49.214844 C 77.898438 49.019531 78.28125 48.695312 78.855469 48.695312 C 79.480469 48.695312 79.839844 49.007812 79.839844 49.980469 Z M 79.839844 51.253906 L 79.839844 52.523438 C 79.722656 52.703125 79.445312 53.089844 78.882812 53.089844 C 78.402344 53.089844 78.113281 52.789062 78.113281 52.199219 C 78.113281 51.566406 78.605469 51.300781 79.527344 51.265625 Z M 84.882812 53.664062 L 84.75 52.886719 C 84.652344 52.945312 84.4375 53.054688 84.148438 53.054688 C 83.65625 53.054688 83.464844 52.8125 83.464844 51.996094 L 83.464844 48.804688 L 84.726562 48.804688 L 84.84375 48.011719 L 83.464844 48.011719 L 83.464844 46.40625 L 82.601562 46.40625 L 82.492188 48.011719 L 81.796875 48.15625 L 81.796875 48.804688 L 82.492188 48.804688 L 82.492188 52.128906 C 82.492188 53.402344 82.996094 53.917969 83.980469 53.917969 C 84.496094 53.917969 84.796875 53.726562 84.882812 53.664062 Z M 88.734375 48.480469 C 88.539062 48.289062 88.15625 47.867188 87.269531 47.867188 C 86.332031 47.867188 85.601562 48.503906 85.601562 49.355469 C 85.601562 50.148438 86.03125 50.617188 86.753906 51.074219 L 87.113281 51.300781 C 87.664062 51.648438 87.953125 51.839844 87.953125 52.394531 C 87.953125 52.765625 87.640625 53.054688 87.066406 53.054688 C 86.441406 53.054688 86.082031 52.679688 85.902344 52.488281 L 85.433594 53.257812 C 85.660156 53.496094 86.128906 53.917969 87.054688 53.917969 C 88.230469 53.917969 88.890625 53.210938 88.890625 52.296875 C 88.890625 51.445312 88.410156 50.976562 87.628906 50.507812 L 87.269531 50.292969 C 86.753906 49.980469 86.511719 49.742188 86.511719 49.308594 C 86.511719 48.972656 86.789062 48.695312 87.304688 48.695312 C 87.84375 48.695312 88.179688 49.03125 88.3125 49.175781 Z M 92.1875 48.734375 C 92.789062 48.734375 93.054688 49.128906 93.054688 50.066406 L 93.054688 53.773438 L 94.023438 53.773438 L 94.023438 49.910156 C 94.023438 49.691406 94.011719 49.488281 93.976562 49.308594 C 94.191406 49.058594 94.554688 48.734375 95.082031 48.734375 C 95.730469 48.734375 96.078125 49.128906 96.078125 50.066406 L 96.078125 53.773438 L 97.050781 53.773438 L 97.050781 49.910156 C 97.050781 48.539062 96.449219 47.867188 95.296875 47.867188 C 94.554688 47.867188 94.023438 48.3125 93.773438 48.636719 C 93.507812 48.121094 93.027344 47.867188 92.382812 47.867188 C 91.589844 47.867188 91.097656 48.398438 90.941406 48.660156 L 90.917969 48.660156 L 90.917969 48.011719 L 90.027344 48.011719 L 90.027344 53.773438 L 91 53.773438 L 91 49.332031 C 91.167969 49.128906 91.539062 48.734375 92.1875 48.734375 Z M 98.238281 50.894531 C 98.238281 53.054688 99.207031 53.917969 100.480469 53.917969 C 101.742188 53.917969 102.785156 53.039062 102.785156 50.894531 C 102.785156 48.769531 101.8125 47.867188 100.539062 47.867188 C 99.304688 47.867188 98.238281 48.769531 98.238281 50.894531 Z M 101.777344 50.894531 C 101.777344 52.417969 101.308594 53.054688 100.515625 53.054688 C 99.726562 53.054688 99.246094 52.417969 99.246094 50.894531 C 99.246094 49.367188 99.710938 48.695312 100.503906 48.695312 C 101.296875 48.695312 101.777344 49.367188 101.777344 50.894531 Z M 106.023438 53.054688 C 105.351562 53.054688 104.753906 52.523438 104.753906 50.941406 C 104.753906 49.308594 105.460938 48.734375 106.359375 48.734375 C 106.707031 48.734375 106.9375 48.828125 107.105469 48.9375 L 107.105469 52.488281 C 106.972656 52.679688 106.636719 53.054688 106.023438 53.054688 Z M 107.164062 53.160156 L 107.1875 53.160156 L 107.1875 53.773438 L 108.078125 53.773438 L 108.078125 45.179688 L 107.105469 45.289062 L 107.105469 48.050781 C 106.925781 47.976562 106.660156 47.90625 106.289062 47.90625 C 105.066406 47.90625 103.746094 48.648438 103.746094 50.976562 C 103.746094 53.078125 104.667969 53.917969 105.761719 53.917969 C 106.671875 53.917969 107.058594 53.339844 107.164062 53.160156 Z M 111.4375 48.660156 C 112.050781 48.660156 112.371094 49.128906 112.371094 49.921875 C 112.371094 50.101562 112.359375 50.257812 112.347656 50.339844 L 110.261719 50.339844 C 110.308594 49.261719 110.753906 48.660156 111.4375 48.660156 Z M 113.382812 53.234375 L 113.019531 52.550781 C 112.890625 52.679688 112.492188 53.054688 111.808594 53.054688 C 110.835938 53.054688 110.308594 52.417969 110.25 51.074219 L 113.1875 51.074219 C 113.226562 50.796875 113.261719 50.449219 113.261719 49.957031 C 113.261719 48.578125 112.589844 47.867188 111.496094 47.867188 C 110.296875 47.867188 109.300781 48.78125 109.300781 50.820312 C 109.300781 52.992188 110.210938 53.917969 111.664062 53.917969 C 112.757812 53.917969 113.226562 53.402344 113.382812 53.234375 Z M 117.207031 48 C 117.113281 47.964844 116.957031 47.90625 116.679688 47.90625 C 115.949219 47.90625 115.636719 48.335938 115.46875 48.792969 L 115.445312 48.792969 L 115.445312 48.011719 L 114.558594 48.011719 L 114.558594 53.773438 L 115.527344 53.773438 L 115.527344 49.550781 C 115.671875 49.164062 115.996094 48.769531 116.609375 48.769531 C 116.871094 48.769531 117.039062 48.839844 117.089844 48.863281 Z M 120.195312 48.695312 C 120.867188 48.695312 121.191406 49.09375 121.191406 50.066406 L 121.191406 53.773438 L 122.164062 53.773438 L 122.164062 49.992188 C 122.164062 48.433594 121.515625 47.867188 120.484375 47.867188 C 119.585938 47.867188 119.070312 48.457031 118.960938 48.660156 L 118.9375 48.660156 L 118.9375 48.011719 L 118.046875 48.011719 L 118.046875 53.773438 L 119.019531 53.773438 L 119.019531 49.332031 C 119.210938 49.09375 119.609375 48.695312 120.195312 48.695312 Z M 124.109375 46.621094 C 124.492188 46.621094 124.757812 46.332031 124.757812 45.925781 C 124.757812 45.527344 124.492188 45.242188 124.109375 45.242188 C 123.710938 45.242188 123.449219 45.527344 123.449219 45.925781 C 123.449219 46.332031 123.710938 46.621094 124.109375 46.621094 Z M 124.589844 48.011719 L 123.617188 48.011719 L 123.617188 53.773438 L 124.589844 53.773438 Z M 128.980469 48.480469 C 128.789062 48.289062 128.40625 47.867188 127.515625 47.867188 C 126.582031 47.867188 125.847656 48.503906 125.847656 49.355469 C 125.847656 50.148438 126.28125 50.617188 127 51.074219 L 127.359375 51.300781 C 127.914062 51.648438 128.199219 51.839844 128.199219 52.394531 C 128.199219 52.765625 127.890625 53.054688 127.3125 53.054688 C 126.6875 53.054688 126.328125 52.679688 126.148438 52.488281 L 125.679688 53.257812 C 125.910156 53.496094 126.375 53.917969 127.300781 53.917969 C 128.476562 53.917969 129.136719 53.210938 129.136719 52.296875 C 129.136719 51.445312 128.65625 50.976562 127.875 50.507812 L 127.515625 50.292969 C 127 49.980469 126.761719 49.742188 126.761719 49.308594 C 126.761719 48.972656 127.035156 48.695312 127.554688 48.695312 C 128.09375 48.695312 128.429688 49.03125 128.5625 49.175781 Z M 130.769531 46.621094 C 131.152344 46.621094 131.417969 46.332031 131.417969 45.925781 C 131.417969 45.527344 131.152344 45.242188 130.769531 45.242188 C 130.371094 45.242188 130.109375 45.527344 130.109375 45.925781 C 130.109375 46.332031 130.371094 46.621094 130.769531 46.621094 Z M 131.25 48.011719 L 130.277344 48.011719 L 130.277344 53.773438 L 131.25 53.773438 Z M 134.609375 48.660156 C 135.222656 48.660156 135.542969 49.128906 135.542969 49.921875 C 135.542969 50.101562 135.53125 50.257812 135.519531 50.339844 L 133.433594 50.339844 C 133.480469 49.261719 133.925781 48.660156 134.609375 48.660156 Z M 136.554688 53.234375 L 136.191406 52.550781 C 136.0625 52.679688 135.664062 53.054688 134.980469 53.054688 C 134.007812 53.054688 133.480469 52.417969 133.421875 51.074219 L 136.359375 51.074219 C 136.398438 50.796875 136.433594 50.449219 136.433594 49.957031 C 136.433594 48.578125 135.761719 47.867188 134.667969 47.867188 C 133.46875 47.867188 132.472656 48.78125 132.472656 50.820312 C 132.472656 52.992188 133.386719 53.917969 134.835938 53.917969 C 135.929688 53.917969 136.398438 53.402344 136.554688 53.234375 Z M 140.378906 48 C 140.285156 47.964844 140.128906 47.90625 139.851562 47.90625 C 139.121094 47.90625 138.808594 48.335938 138.640625 48.792969 L 138.617188 48.792969 L 138.617188 48.011719 L 137.730469 48.011719 L 137.730469 53.773438 L 138.699219 53.773438 L 138.699219 49.550781 C 138.84375 49.164062 139.167969 48.769531 139.78125 48.769531 C 140.042969 48.769531 140.210938 48.839844 140.261719 48.863281 Z M 144.339844 53.125 L 144.363281 53.125 L 144.363281 53.773438 L 145.253906 53.773438 L 145.253906 48.011719 L 144.28125 48.011719 L 144.28125 52.417969 C 144.089844 52.65625 143.703125 53.054688 143.117188 53.054688 C 142.46875 53.054688 142.15625 52.667969 142.15625 51.722656 L 142.15625 48.011719 L 141.183594 48.011719 L 141.183594 51.792969 C 141.183594 53.351562 141.820312 53.917969 142.839844 53.917969 C 143.714844 53.917969 144.234375 53.328125 144.339844 53.125 Z M 148.890625 48.695312 C 149.5625 48.695312 149.882812 49.09375 149.882812 50.066406 L 149.882812 53.773438 L 150.855469 53.773438 L 150.855469 49.992188 C 150.855469 48.433594 150.207031 47.867188 149.175781 47.867188 C 148.277344 47.867188 147.761719 48.457031 147.652344 48.660156 L 147.628906 48.660156 L 147.628906 48.011719 L 146.742188 48.011719 L 146.742188 53.773438 L 147.710938 53.773438 L 147.710938 49.332031 C 147.90625 49.09375 148.300781 48.695312 148.890625 48.695312 Z M 155.042969 49.800781 C 155.042969 50.628906 154.589844 50.953125 154.035156 50.953125 C 153.507812 50.953125 153.039062 50.628906 153.039062 49.800781 C 153.039062 48.972656 153.507812 48.648438 154.0625 48.648438 C 154.589844 48.648438 155.042969 48.972656 155.042969 49.800781 Z M 156.460938 54.21875 C 156.460938 53.125 155.644531 52.691406 154.550781 52.691406 L 153.820312 52.691406 C 153.402344 52.691406 153.234375 52.523438 153.234375 52.285156 C 153.234375 51.984375 153.507812 51.828125 153.699219 51.746094 C 153.796875 51.757812 153.894531 51.757812 154 51.757812 C 155.128906 51.757812 155.992188 51.023438 155.992188 49.800781 C 155.992188 49.417969 155.898438 49.058594 155.714844 48.769531 L 156.4375 48.769531 L 156.570312 48.011719 L 154.816406 48.011719 C 154.578125 47.917969 154.324219 47.867188 154.046875 47.867188 C 152.96875 47.867188 152.09375 48.503906 152.09375 49.800781 C 152.09375 50.714844 152.488281 51.289062 153.078125 51.566406 L 153.078125 51.589844 C 152.933594 51.660156 152.378906 51.902344 152.378906 52.523438 C 152.378906 52.886719 152.511719 53.148438 152.753906 53.328125 L 152.753906 53.351562 C 152.488281 53.496094 151.792969 53.90625 151.792969 54.757812 C 151.792969 55.753906 152.453125 56.316406 153.675781 56.316406 C 155.378906 56.316406 156.460938 55.453125 156.460938 54.21875 Z M 153.75 55.488281 C 153.066406 55.488281 152.730469 55.175781 152.730469 54.566406 C 152.730469 53.988281 153.039062 53.714844 153.316406 53.558594 C 153.449219 53.582031 153.605469 53.59375 153.761719 53.59375 L 154.492188 53.59375 C 155.082031 53.59375 155.464844 53.808594 155.464844 54.359375 C 155.464844 54.949219 154.925781 55.488281 153.75 55.488281 Z M 153.75 55.488281 "/>
</svg>
