<svg width="4748" height="2137" viewBox="0 0 4748 2137" fill="none" xmlns="http://www.w3.org/2000/svg">
<path d="M502.417 295.444C503.379 287.466 503.949 279.239 503.949 270.833C503.949 266.239 503.985 260.896 503.415 254.841C574.43 253.844 636.715 202.699 636.715 143.896C636.715 113.978 617.189 91.3973 606.178 77.8986C608.637 77.3644 611.131 76.7945 613.661 76.189C624.066 85.2356 653.569 117.362 653.569 157.929C653.569 228.485 583.017 293.984 502.417 295.444ZM430.867 49.726C429.549 41.8548 426.555 34.7315 421.995 28.6055C422.244 21.4109 425.201 14.537 436.782 20.2C430.511 26.6109 435.357 37.9726 435.357 37.9726C435.357 37.9726 448.184 32.0246 445.512 23.5479C464.54 28.1068 450.857 53.6438 430.867 49.726ZM414.369 85.948C411.839 75.4055 406.423 64.5781 399.546 56.4219C393.275 49.0137 382.906 40.2164 368.938 40.2164C362.56 40.2164 351.87 43.2082 345.064 46.0931C342.534 41.463 337.581 30.315 337.581 25.2931C337.581 20.1287 346.311 14.8931 363.023 14.8931C399.796 14.8931 421.745 31.4904 421.745 59.3425C421.745 69.137 417.861 78.0411 414.369 85.948ZM508.795 559.647C513.071 559.647 515.138 560.324 517.632 561.25C528.215 590.028 569.014 644.343 570.724 646.658L571.081 647.157L571.686 647.014C581.699 645.411 607.247 641.565 628.627 641.565H629.126C631.442 641.565 634.079 641.565 635.753 643.203C637.143 644.592 637.82 647.014 637.82 650.469C637.82 655.776 635.575 664.858 632.867 668.74C625.384 660.584 613.234 656.916 593.778 656.916C587.935 656.916 581.022 658.661 577.281 659.658L575.748 659.979L574.002 660.442L585.227 671.661C602.544 688.97 617.51 703.894 617.51 713.831C617.51 719.814 611.666 727.614 606.321 731.069C605.145 712.869 586.759 688.507 568.836 674.866L567.303 673.727L567.018 680.138C566.769 684.483 566.377 691 566.377 697.981C566.377 732.636 562.849 737.907 550.841 737.907C548.988 737.907 546.173 737.373 544.427 736.732C551.198 728.362 553.87 717.321 553.87 697.946L553.763 689.006L553.656 681.811C553.656 673.869 554.476 667.992 555.117 663.255L555.474 660.584L553.585 660.335C547.955 659.551 537.515 658.127 529.533 658.127C512.394 658.127 500.778 659.694 492.368 667.6C486.81 663.113 481.109 655.384 481.109 650.505C481.109 643.274 485.598 642.705 491.513 642.705C494.506 642.705 497.286 643.132 501.134 643.595C508.51 644.699 519.592 646.337 542.432 646.337H543.857L543.394 644.948C537.622 628.387 521.73 604.31 496.252 573.359C498.533 565.061 500.778 559.647 508.795 559.647ZM288.801 644.948L288.337 646.337H289.763C312.567 646.337 323.685 644.699 331.061 643.595C334.909 643.132 337.688 642.705 340.681 642.705C346.561 642.705 351.086 643.274 351.086 650.505C351.086 655.384 345.385 663.113 339.862 667.6C331.417 659.694 319.801 658.127 302.697 658.127C294.68 658.127 284.204 659.551 278.61 660.335L277.719 660.442L276.721 660.584L277.042 663.255C277.719 667.992 278.538 673.869 278.538 681.811L278.432 689.006L278.325 697.946C278.325 717.321 280.997 728.362 287.803 736.732C286.021 737.373 283.206 737.907 281.353 737.907C269.31 737.907 265.818 732.636 265.818 697.981C265.818 691 265.461 684.483 265.212 680.138L264.856 673.691L263.359 674.866C245.472 688.507 227.014 712.869 225.909 731.069C220.529 727.614 214.685 719.814 214.685 713.831C214.685 703.894 229.651 688.97 246.968 671.661L256.91 661.724L258.192 660.442L254.914 659.658C251.173 658.661 244.26 656.916 238.381 656.916C218.961 656.916 206.846 660.584 199.328 668.74C196.62 664.858 194.375 655.776 194.375 650.469C194.375 647.014 195.052 644.592 196.441 643.203C198.116 641.565 200.753 641.565 203.069 641.565H203.568C224.947 641.565 250.531 645.411 260.508 647.014L261.114 647.157L261.471 646.658C263.217 644.343 303.98 590.028 314.598 561.25C317.021 560.324 319.124 559.647 323.4 559.647C331.417 559.647 333.662 565.061 335.978 573.359C310.465 604.31 294.573 628.387 288.801 644.948ZM178.625 157.929C178.625 117.362 208.164 85.2356 218.569 76.189C221.063 76.7945 223.558 77.3644 226.052 77.8986C215.006 91.3973 195.479 113.978 195.479 143.896C195.479 203.304 258.976 254.877 330.882 254.877C330.419 259.97 330.17 265.312 330.17 270.833C330.17 279.595 330.669 287.751 331.524 295.444C250.211 294.945 178.625 228.984 178.625 157.929ZM724.015 283.049C760.502 340.713 789.044 339.751 832.159 339.751C796.491 312.433 772.902 277.422 761.643 259.543L695.01 152.978C688.525 120.069 671.493 89.2959 645.98 66.3945C654.567 63.1534 661.694 59.7342 665.97 56.4931C622.462 56.4931 579.347 34.4109 555.616 34.4109C540.365 34.4109 530.566 43.5288 530.566 55.5671C531.529 68.9945 545.354 82.6356 570.902 82.6356C576.675 82.6356 584.086 81.8877 592.211 80.5343C606.036 99.8028 617.189 117.219 617.189 142.08C617.189 188.737 561.388 225.102 505.054 225.102C501.847 225.102 498.818 224.959 495.647 224.745C490.551 213.17 473.555 193.759 473.555 171.677C473.555 134.6 497.749 104.326 497.749 67.6055C497.749 44.7753 486.632 30.6356 482.356 24.7589C489.268 18.3479 496.823 10.4767 498.604 5.06297C494.578 6.80818 489.803 7.02188 482.855 7.02188C455.845 7.02188 433.824 0.00543213 412.374 0.00543213C400.116 0.00543213 396.838 3.78078 396.838 7.37804C396.838 8.69585 397.016 10.0493 397.373 10.6904C392.812 8.90955 388.536 7.73421 383.44 6.80818C377.098 5.59722 370.292 4.99174 363.023 4.99174C336.94 4.99174 327.676 15.926 327.676 25.2931C327.676 33.2 333.911 47.6603 341.002 58.7014C351.157 53.5726 363.379 50.1178 368.938 50.1178C382.799 50.1178 395.092 63.2959 401.613 78.8959C392.313 80.0356 390.531 80.4274 381.124 80.4274C355.718 80.4274 338.437 71.3452 334.873 71.3452C334.553 71.3452 333.876 71.5233 333.876 72.0932C333.876 75.6548 341.073 85.0576 355.255 90.2219C373.962 97.0603 401.969 99.9096 406.637 100.693C406.637 101.512 401.898 110.345 396.589 112.055C395.484 112.411 394.593 112.447 393.275 112.162C373.748 108.315 368.296 106.677 343.532 97.274C342.784 96.9891 342.32 97.4521 342.32 98.2356C342.32 108.03 367.691 129.649 390.424 137.948C371.432 162.167 347.737 186.956 336.548 224.745C333.377 224.959 330.312 225.102 327.141 225.102C270.806 225.102 215.006 188.737 215.006 142.08C215.006 117.219 226.159 99.8028 239.984 80.5343C248.108 81.8877 255.484 82.6356 261.292 82.6356C286.841 82.6356 300.666 68.9945 301.664 55.5671C301.664 43.5288 291.865 34.4109 276.579 34.4109C252.848 34.4109 209.768 56.4931 166.19 56.4931C170.501 59.7342 177.628 63.1534 186.179 66.3945C160.702 89.2959 143.67 120.069 137.185 152.978L70.5522 259.543C59.3279 277.422 35.668 312.433 0 339.751C43.1152 339.751 71.6924 340.713 108.18 283.049L142.351 228.414C144.881 235.502 147.981 242.411 151.652 249.178L83.7005 357.844C72.405 375.866 48.9589 410.556 13.1484 438.052C56.2636 438.052 84.8407 439.05 121.328 381.422L179.801 287.822C184.184 292.488 188.78 297.047 193.626 301.392L111.102 433.458C99.7707 451.515 76.4671 486.135 40.5853 513.595C83.7005 513.595 112.278 514.628 148.73 456.965L229.188 328.211C234.497 331.559 239.913 334.8 245.543 337.863L147.304 494.967C135.973 513.025 112.67 547.537 76.7878 575.104C119.903 575.104 148.48 576.102 184.968 518.474L286.093 356.669C292.079 358.948 298.136 361.156 304.301 363.115L190.028 545.935C178.875 563.743 155.037 598.896 119.547 626.072C162.626 626.072 191.239 627.069 227.691 569.441L349.483 374.619C350.73 374.833 351.941 375.011 353.153 375.261C356.467 385.803 358.783 395.633 358.783 405.428C358.783 466.652 318.589 520.718 270.343 562.461C273.443 563.814 278.824 564.277 283.776 564.277C293.754 564.277 300.167 563.743 304.693 562.959C293.504 588.354 269.488 621.157 257.373 638.11C241.588 635.261 218.605 633.052 203.568 633.052C187.818 633.052 186.037 642.242 186.037 650.469C186.037 664.751 192.736 676.113 200.504 682.453C203.425 675.151 209.305 665.392 238.381 665.392C238.951 665.392 239.949 665.464 241.303 665.57C232.822 675.009 206.205 696.521 206.205 713.831C206.205 725.299 218.783 742.502 235.352 742.502C234.39 738.798 234.497 735.414 234.497 732.85C234.497 718.817 246.933 702.398 257.444 690.929C257.123 694.348 257.302 693.992 257.302 697.981C257.302 731.14 260.295 746.384 281.353 746.384C291.687 746.384 298.813 740.721 301.272 739.012C287.589 726.439 286.876 716.538 286.876 697.946C286.912 693.102 286.948 688.365 287.019 681.847C287.055 677.573 286.983 671.946 286.306 667.885C293.825 666.853 296.889 666.853 302.697 666.853C302.697 666.853 332.593 664.466 339.826 680.031C347.95 672.587 359.745 662.08 359.745 650.505C359.745 642.847 356.11 634.192 340.681 634.192C334.838 634.192 316.487 637.754 301.129 637.754C305.263 628.6 323.613 601.746 339.541 582.263C341.964 589.814 345.706 597.97 354.044 604.666C355.219 592.129 362.56 552.488 382.158 529.302C384.438 544.973 387.502 561.036 387.502 594.907C387.502 677.324 367.691 738.192 325.609 749.803C331.096 759.313 342.677 767.896 354.685 767.896C370.078 767.896 378.452 750.48 387.004 734.061C391.458 746.17 403.751 775.875 416.08 775.875C428.408 775.875 440.737 746.17 445.191 734.061C453.707 750.48 462.117 767.896 477.51 767.896C489.518 767.896 501.098 759.313 506.586 749.803C464.504 738.192 444.657 677.324 444.657 594.907C444.657 561.036 447.721 544.973 450.002 529.302C469.635 552.488 477.011 592.129 478.116 604.666C486.489 597.97 490.266 589.814 492.654 582.263C508.546 601.746 526.932 628.6 531.065 637.754C515.708 637.754 497.321 634.192 491.513 634.192C476.12 634.192 472.486 642.847 472.486 650.505C472.486 662.08 484.28 672.587 492.404 680.031C499.566 664.466 529.533 666.853 529.533 666.853C535.306 666.853 538.37 666.853 545.924 667.885C545.211 671.946 545.176 677.573 545.211 681.847C545.283 688.365 545.283 693.102 545.318 697.946C545.318 716.538 544.606 726.439 530.923 739.012C533.381 740.721 540.508 746.384 550.841 746.384C571.9 746.384 574.929 731.14 574.929 697.981C574.929 693.992 575.036 694.348 574.751 690.929C585.262 702.398 597.698 718.817 597.698 732.85C597.698 735.414 597.84 738.798 596.807 742.502C613.412 742.502 626.026 725.299 626.026 713.831C626.026 696.521 599.408 675.009 590.857 665.57C592.246 665.464 593.244 665.392 593.778 665.392C622.89 665.392 628.769 675.151 631.691 682.453C639.459 676.113 646.158 664.751 646.158 650.469C646.158 642.242 644.376 633.052 628.627 633.052C613.59 633.052 590.643 635.261 574.822 638.11C562.671 621.157 538.726 588.354 527.502 562.959C532.027 563.743 538.477 564.277 548.418 564.277C553.407 564.277 558.752 563.814 561.852 562.461C513.605 520.718 473.412 466.652 473.412 405.428C473.412 395.633 475.728 385.803 479.042 375.261C480.218 375.011 481.501 374.833 482.712 374.619L604.504 569.441C640.956 627.069 669.568 626.072 712.648 626.072C677.158 598.896 653.32 563.743 642.167 545.935L527.858 363.115C534.058 361.156 540.152 358.948 546.138 356.669L647.227 518.474C683.714 576.102 712.292 575.104 755.407 575.104C719.525 547.537 696.221 513.025 684.89 494.967L586.688 337.863C592.246 334.8 597.698 331.559 602.971 328.211L683.465 456.965C719.953 514.628 748.494 513.595 791.609 513.595C755.728 486.135 732.46 451.515 721.093 433.458L638.568 301.392C643.414 297.047 648.047 292.488 652.358 287.822L710.902 381.422C747.354 439.05 775.931 438.052 819.046 438.052C783.2 410.556 759.825 375.866 748.494 357.844L680.579 249.178C684.213 242.411 687.313 235.502 689.879 228.414L724.015 283.049Z" fill="white"/>
<path d="M1195.69 2137.01L1070.98 2137.01L1070.98 1424.68L1195.69 1424.68L1195.69 2137.01Z" fill="white" fill-opacity="0.2"/>
<path d="M1195.69 1424.67L1070.98 1424.67L1070.98 712.338L1195.69 712.338L1195.69 1424.67Z" fill="white" fill-opacity="0.6"/>
<path d="M1195.69 712.329L1070.98 712.329L1070.98 -1.08979e-05L1195.69 0L1195.69 712.329Z" fill="white"/>
<path d="M1611.5 86.3398C1611.5 40.6082 1583.71 11.1178 1513.59 11.1178H1456.72V306.022H1517.01C1587.56 306.022 1619.2 272.258 1619.2 226.099C1619.2 186.778 1593.97 161.134 1563.61 155.151V154.296C1589.27 147.458 1611.5 127.37 1611.5 86.3398ZM1573.88 87.622C1573.88 121.386 1552.92 142.329 1513.16 142.329H1493.92V40.6082H1513.59C1555.06 40.6082 1573.88 60.6959 1573.88 87.622ZM1579.43 223.534C1579.43 257.299 1560.62 275.25 1517.01 275.25H1493.92V171.819H1519.14C1557.63 171.819 1579.43 191.907 1579.43 223.534ZM1776.12 282.943H1776.98V306.022H1808.62V100.871H1773.99V257.726C1767.15 266.274 1753.46 280.378 1732.51 280.378C1709.42 280.378 1698.3 266.702 1698.3 232.937V100.871H1663.67V235.502C1663.67 291.063 1686.33 311.151 1722.68 311.151C1753.89 311.151 1772.28 290.208 1776.12 282.943ZM1938.18 125.233C1962.13 125.233 1973.67 139.337 1973.67 173.956V306.022H2008.3V171.392C2008.3 115.83 1985.22 95.7425 1948.44 95.7425C1916.37 95.7425 1897.99 116.685 1894.14 123.951H1893.28V100.871H1861.64V306.022H1896.28V147.885C1903.12 139.337 1917.23 125.233 1938.18 125.233ZM2131.88 280.378C2107.93 280.378 2086.55 261.573 2086.55 205.156C2086.55 147.03 2111.78 126.515 2143.85 126.515C2156.25 126.515 2164.37 129.934 2170.36 133.781V260.291C2165.66 267.129 2153.68 280.378 2131.88 280.378ZM2172.5 284.225H2173.35V306.022H2205V0.00543213L2170.36 3.852V102.153C2163.95 99.5891 2154.54 97.0247 2141.28 97.0247C2097.67 97.0247 2050.64 123.523 2050.64 206.439C2050.64 281.233 2083.56 311.151 2122.47 311.151C2154.97 311.151 2168.65 290.636 2172.5 284.225ZM2324.72 123.951C2346.53 123.951 2358.07 140.619 2358.07 168.828C2358.07 175.238 2357.64 180.795 2357.22 183.786H2282.82C2284.53 145.321 2300.35 123.951 2324.72 123.951ZM2393.99 286.789L2381.16 262.428C2376.46 267.129 2362.35 280.378 2337.97 280.378C2303.34 280.378 2284.53 257.726 2282.39 209.858H2387.15C2388.43 200.028 2389.71 187.633 2389.71 170.11C2389.71 120.959 2365.77 95.7425 2326.86 95.7425C2284.1 95.7425 2248.61 128.225 2248.61 200.882C2248.61 278.241 2281.11 311.151 2332.84 311.151C2371.75 311.151 2388.43 292.773 2393.99 286.789ZM2539.37 117.54C2532.53 110.701 2518.84 95.7425 2487.2 95.7425C2453.85 95.7425 2427.77 118.395 2427.77 148.74C2427.77 176.948 2443.16 193.617 2468.82 209.858L2481.64 217.978C2501.31 230.373 2511.58 237.211 2511.58 256.871C2511.58 270.121 2500.46 280.378 2479.93 280.378C2457.7 280.378 2444.87 267.129 2438.46 260.291L2421.78 287.644C2429.91 296.192 2446.58 311.151 2479.51 311.151C2521.41 311.151 2544.93 285.935 2544.93 253.452C2544.93 223.107 2527.82 206.439 2500.03 189.77L2487.2 182.077C2468.82 170.965 2460.26 162.417 2460.26 147.03C2460.26 135.063 2470.1 125.233 2488.49 125.233C2507.73 125.233 2519.7 137.2 2524.4 142.329L2539.37 117.54ZM2662.51 126.515C2683.89 126.515 2693.3 140.619 2693.3 173.956V306.022H2727.93V168.4C2727.93 160.707 2727.51 153.441 2726.22 147.03C2733.92 138.055 2746.75 126.515 2765.56 126.515C2788.65 126.515 2801.05 140.619 2801.05 173.956V306.022H2835.69V168.4C2835.69 119.677 2814.31 95.7425 2773.26 95.7425C2746.75 95.7425 2727.93 111.556 2718.96 123.096C2709.55 104.718 2692.44 95.7425 2669.35 95.7425C2641.13 95.7425 2623.6 114.548 2618.04 123.951H2617.19V100.871H2585.55V306.022H2620.18V147.885C2626.17 140.619 2639.42 126.515 2662.51 126.515ZM2904.96 51.2932C2918.64 51.2932 2928.05 41.0356 2928.05 26.5041C2928.05 12.4 2918.64 2.14244 2904.96 2.14244C2890.85 2.14244 2881.44 12.4 2881.44 26.5041C2881.44 41.0356 2890.85 51.2932 2904.96 51.2932ZM2922.06 100.871H2887.43V306.022H2922.06V100.871ZM3051.62 125.233C3075.56 125.233 3087.11 139.337 3087.11 173.956V306.022H3121.74V171.392C3121.74 115.83 3098.65 95.7425 3061.88 95.7425C3029.81 95.7425 3011.43 116.685 3007.58 123.951H3006.72V100.871H2975.08V306.022H3009.72V147.885C3016.56 139.337 3030.67 125.233 3051.62 125.233ZM3191.01 51.2932C3204.7 51.2932 3214.1 41.0356 3214.1 26.5041C3214.1 12.4 3204.7 2.14244 3191.01 2.14244C3176.9 2.14244 3167.5 12.4 3167.5 26.5041C3167.5 41.0356 3176.9 51.2932 3191.01 51.2932ZM3208.12 100.871H3173.48V306.022H3208.12V100.871ZM3364.61 117.54C3357.77 110.701 3344.09 95.7425 3312.45 95.7425C3279.1 95.7425 3253.01 118.395 3253.01 148.74C3253.01 176.948 3268.41 193.617 3294.06 209.858L3306.89 217.978C3326.56 230.373 3336.82 237.211 3336.82 256.871C3336.82 270.121 3325.7 280.378 3305.18 280.378C3282.94 280.378 3270.12 267.129 3263.7 260.291L3247.03 287.644C3255.15 296.192 3271.83 311.151 3304.75 311.151C3346.65 311.151 3370.17 285.935 3370.17 253.452C3370.17 223.107 3353.07 206.439 3325.28 189.77L3312.45 182.077C3294.06 170.965 3285.51 162.417 3285.51 147.03C3285.51 135.063 3295.34 125.233 3313.73 125.233C3332.97 125.233 3344.94 137.2 3349.65 142.329L3364.61 117.54ZM3504.01 302.176L3499.3 274.395C3495.88 276.532 3488.19 280.378 3477.92 280.378C3460.39 280.378 3453.55 271.83 3453.55 242.767V129.08H3498.45L3502.72 100.871H3453.55V43.6H3422.76L3418.92 100.871L3394.12 106V129.08H3418.92V247.469C3418.92 292.773 3436.88 311.151 3471.94 311.151C3490.32 311.151 3501.01 304.313 3504.01 302.176ZM3601.5 123.951C3623.3 123.951 3634.85 140.619 3634.85 168.828C3634.85 175.238 3634.42 180.795 3633.99 183.786H3559.59C3561.3 145.321 3577.12 123.951 3601.5 123.951ZM3670.77 286.789L3657.94 262.428C3653.23 267.129 3639.12 280.378 3614.75 280.378C3580.12 280.378 3561.3 257.726 3559.16 209.858H3663.92C3665.21 200.028 3666.49 187.633 3666.49 170.11C3666.49 120.959 3642.54 95.7425 3603.63 95.7425C3560.87 95.7425 3525.39 128.225 3525.39 200.882C3525.39 278.241 3557.88 311.151 3609.62 311.151C3648.53 311.151 3665.21 292.773 3670.77 286.789ZM3807.17 100.444C3803.74 99.1617 3798.19 97.0247 3788.35 97.0247C3762.27 97.0247 3751.15 112.411 3745.17 128.652H3744.31V100.871H3712.67V306.022H3747.3V155.578C3752.43 141.901 3763.98 127.797 3785.79 127.797C3795.19 127.797 3801.18 130.362 3802.89 131.217L3807.17 100.444ZM3854.63 51.2932C3868.31 51.2932 3877.72 41.0356 3877.72 26.5041C3877.72 12.4 3868.31 2.14244 3854.63 2.14244C3840.52 2.14244 3831.11 12.4 3831.11 26.5041C3831.11 41.0356 3840.52 51.2932 3854.63 51.2932ZM3871.73 100.871H3837.1V306.022H3871.73V100.871ZM4035.92 282.943H4036.78V306.022H4068.42V100.871H4033.79V257.726C4026.95 266.274 4013.26 280.378 3992.31 280.378C3969.22 280.378 3958.1 266.702 3958.1 232.937V100.871H3923.47V235.502C3923.47 291.063 3946.13 311.151 3982.48 311.151C4013.69 311.151 4032.08 290.208 4035.92 282.943ZM4198.41 126.515C4219.79 126.515 4229.19 140.619 4229.19 173.956V306.022H4263.83V168.4C4263.83 160.707 4263.4 153.441 4262.12 147.03C4269.82 138.055 4282.64 126.515 4301.46 126.515C4324.55 126.515 4336.95 140.619 4336.95 173.956V306.022H4371.58V168.4C4371.58 119.677 4350.2 95.7425 4309.15 95.7425C4282.64 95.7425 4263.83 111.556 4254.85 123.096C4245.44 104.718 4228.34 95.7425 4205.25 95.7425C4177.03 95.7425 4159.5 114.548 4153.94 123.951H4153.08V100.871H4121.44V306.022H4156.08V147.885C4162.06 140.619 4175.32 126.515 4198.41 126.515Z" fill="white"/>
<path d="M1535.82 556.485L1540.09 528.277H1493.92V491.521C1493.92 464.595 1502.89 455.619 1519.14 455.619C1528.12 455.619 1534.54 459.038 1537.96 461.175L1545.23 432.54C1541.81 430.403 1530.69 424.847 1516.15 424.847C1485.79 424.847 1459.28 442.797 1459.28 487.674V528.704L1434.48 533.406V556.485H1459.28V733.428H1493.92V556.485H1535.82ZM1694.45 469.296C1694.45 456.047 1685.47 447.499 1673.93 447.499C1662.39 447.499 1653.41 456.047 1653.41 469.296C1653.41 482.545 1662.39 491.093 1673.93 491.093C1685.47 491.093 1694.45 482.545 1694.45 469.296ZM1628.61 469.296C1628.61 456.047 1619.63 447.499 1608.08 447.499C1596.54 447.499 1587.56 456.047 1587.56 469.296C1587.56 482.545 1596.54 491.093 1608.08 491.093C1619.63 491.093 1628.61 482.545 1628.61 469.296ZM1681.2 710.348H1682.05V733.428H1713.7V528.277H1679.06V685.132C1672.22 693.68 1658.54 707.784 1637.58 707.784C1614.5 707.784 1603.38 694.107 1603.38 660.343V528.277H1568.74V662.907C1568.74 718.469 1591.41 738.556 1627.75 738.556C1658.96 738.556 1677.35 717.614 1681.2 710.348ZM1861.21 527.849C1857.79 526.567 1852.23 524.43 1842.4 524.43C1816.32 524.43 1805.2 539.817 1799.21 556.058H1798.36V528.277H1766.72V733.428H1801.35V582.984C1806.48 569.307 1818.03 555.203 1839.83 555.203C1849.24 555.203 1855.23 557.767 1856.94 558.622L1861.21 527.849ZM2030.54 733.428C2120.76 733.428 2176.77 686.841 2176.77 578.71C2176.77 477.417 2131.02 438.523 2034.81 438.523H1979.23V733.428H2030.54ZM2034.81 468.014C2100.23 468.014 2137.01 495.367 2137.01 578.71C2137.01 668.891 2098.52 702.655 2030.54 702.655H2016.43V468.014H2034.81ZM2240.91 478.699C2254.59 478.699 2264 468.441 2264 453.91C2264 439.806 2254.59 429.548 2240.91 429.548C2226.8 429.548 2217.39 439.806 2217.39 453.91C2217.39 468.441 2226.8 478.699 2240.91 478.699ZM2258.01 528.277H2223.38V733.428H2258.01V528.277ZM2408.53 591.959C2408.53 621.45 2392.28 632.989 2372.61 632.989C2353.79 632.989 2337.12 621.45 2337.12 591.959C2337.12 562.469 2353.79 550.929 2373.46 550.929C2392.28 550.929 2408.53 562.469 2408.53 591.959ZM2458.98 749.241C2458.98 710.348 2429.91 694.962 2390.99 694.962H2364.91C2349.95 694.962 2343.96 688.978 2343.96 680.43C2343.96 669.745 2353.79 664.189 2360.64 661.198C2364.06 661.625 2367.48 661.625 2371.33 661.625C2411.52 661.625 2442.31 635.554 2442.31 591.959C2442.31 578.282 2438.88 565.46 2432.47 555.203H2458.13L2462.83 528.277H2400.4C2391.85 524.858 2382.87 523.148 2373.04 523.148C2334.55 523.148 2303.34 545.8 2303.34 591.959C2303.34 624.441 2317.45 644.956 2338.4 654.787V655.641C2333.27 658.206 2313.6 666.754 2313.6 688.978C2313.6 701.8 2318.3 711.203 2326.86 717.614V718.469C2317.45 723.598 2292.65 738.129 2292.65 768.474C2292.65 803.948 2316.17 824.036 2359.78 824.036C2420.5 824.036 2458.98 793.263 2458.98 749.241ZM2362.35 794.546C2337.97 794.546 2326 783.433 2326 761.636C2326 741.121 2337.12 731.291 2346.95 725.735C2351.66 726.589 2357.22 727.017 2362.77 727.017H2388.86C2409.81 727.017 2423.49 734.71 2423.49 754.37C2423.49 775.313 2404.25 794.546 2362.35 794.546ZM2514.99 478.699C2528.68 478.699 2538.08 468.441 2538.08 453.91C2538.08 439.806 2528.68 429.548 2514.99 429.548C2500.88 429.548 2491.48 439.806 2491.48 453.91C2491.48 468.441 2500.88 478.699 2514.99 478.699ZM2532.1 528.277H2497.46V733.428H2532.1V528.277ZM2678.33 729.581L2673.63 701.8C2670.21 703.937 2662.51 707.784 2652.25 707.784C2634.72 707.784 2627.88 699.236 2627.88 670.173V556.485H2672.78L2677.05 528.277H2627.88V471.006H2597.09L2593.24 528.277L2568.44 533.406V556.485H2593.24V674.874C2593.24 720.178 2611.2 738.556 2646.26 738.556C2664.65 738.556 2675.34 731.718 2678.33 729.581ZM2796.35 618.03H2785.66C2739.05 618.03 2700.14 633.844 2700.14 681.285C2700.14 714.622 2723.66 738.556 2754.87 738.556C2780.95 738.556 2793.35 721.033 2798.06 710.776H2798.91C2799.34 721.033 2799.77 727.444 2800.2 733.428H2833.12C2832.27 727.872 2830.56 708.211 2830.56 690.688V597.088C2830.56 545.373 2808.32 523.148 2766.42 523.148C2733.49 523.148 2713.82 538.962 2704.84 547.937L2719.38 571.017C2727.08 564.178 2740.76 552.638 2761.29 552.638C2783.52 552.638 2796.35 563.751 2796.35 598.37V618.03ZM2796.35 643.674V688.978C2792.07 695.389 2782.24 709.066 2762.14 709.066C2745.04 709.066 2734.78 698.381 2734.78 677.439C2734.78 654.787 2752.31 645.384 2785.23 644.102L2796.35 643.674ZM2916.93 427.411L2882.29 431.258V688.551C2882.29 724.88 2898.11 737.274 2921.2 737.274C2936.6 737.274 2945.58 733.428 2949 731.718L2946 706.074C2943.87 706.929 2939.59 708.639 2933.18 708.639C2921.2 708.639 2916.93 702.655 2916.93 685.559V427.411ZM3046.91 551.356C3068.72 551.356 3080.27 568.025 3080.27 596.233C3080.27 602.644 3079.84 608.2 3079.41 611.192H3005.01C3006.72 572.726 3022.54 551.356 3046.91 551.356ZM3116.18 714.195L3103.36 689.833C3098.65 694.535 3084.54 707.784 3060.17 707.784C3025.53 707.784 3006.72 685.132 3004.58 637.263H3109.34C3110.62 627.433 3111.91 615.039 3111.91 597.515C3111.91 548.365 3087.96 523.148 3049.05 523.148C3006.29 523.148 2970.8 555.63 2970.8 628.288C2970.8 705.647 3003.3 738.556 3055.04 738.556C3093.95 738.556 3110.62 720.178 3116.18 714.195ZM3261.56 544.945C3254.72 538.107 3241.04 523.148 3209.4 523.148C3176.04 523.148 3149.96 545.8 3149.96 576.145C3149.96 604.354 3165.36 621.022 3191.01 637.263L3203.84 645.384C3223.51 657.778 3233.77 664.617 3233.77 684.277C3233.77 697.526 3222.65 707.784 3202.13 707.784C3179.89 707.784 3167.07 694.535 3160.65 687.696L3143.98 715.05C3152.1 723.598 3168.78 738.556 3201.7 738.556C3243.6 738.556 3267.12 713.34 3267.12 680.858C3267.12 650.513 3250.02 633.844 3222.22 617.176L3209.4 609.482C3191.01 598.37 3182.46 589.822 3182.46 574.436C3182.46 562.469 3192.29 552.638 3210.68 552.638C3229.92 552.638 3241.89 564.606 3246.6 569.734L3261.56 544.945ZM3509.56 710.348H3510.42V733.428H3542.06V528.277H3507.43V685.132C3500.58 693.68 3486.9 707.784 3465.95 707.784C3442.86 707.784 3431.74 694.107 3431.74 660.343V528.277H3397.11V662.907C3397.11 718.469 3419.77 738.556 3456.11 738.556C3487.33 738.556 3505.72 717.614 3509.56 710.348ZM3671.62 552.638C3695.56 552.638 3707.11 566.743 3707.11 601.362V733.428H3741.74V598.797C3741.74 543.236 3718.65 523.148 3681.88 523.148C3649.81 523.148 3631.43 544.091 3627.58 551.356H3626.72V528.277H3595.08V733.428H3629.72V575.291C3636.56 566.743 3650.67 552.638 3671.62 552.638ZM3865.32 707.784C3841.37 707.784 3819.99 688.978 3819.99 632.562C3819.99 574.436 3845.22 553.921 3877.29 553.921C3889.69 553.921 3897.81 557.34 3903.8 561.186V687.696C3899.1 694.535 3887.12 707.784 3865.32 707.784ZM3905.94 711.63H3906.79V733.428H3938.43V427.411L3903.8 431.258V529.559C3897.39 526.995 3887.98 524.43 3874.72 524.43C3831.11 524.43 3784.07 550.929 3784.07 633.844C3784.07 708.639 3817 738.556 3855.91 738.556C3888.41 738.556 3902.09 718.041 3905.94 711.63Z" fill="white"/>
<path d="M1583.73 883.009C1577.32 877.88 1558.51 860.784 1519.17 860.784C1472.99 860.784 1443.48 889.847 1443.48 927.886C1443.48 968.488 1462.3 988.149 1494.79 1015.5L1518.74 1035.59C1543.54 1056.53 1555.51 1070.21 1555.51 1095.85C1555.51 1115.94 1539.26 1132.61 1510.19 1132.61C1479.83 1132.61 1460.16 1113.8 1452.89 1106.97L1437.93 1139.45C1446.48 1147.14 1468.71 1165.95 1511.04 1165.95C1564.06 1165.95 1593.14 1135.6 1593.14 1090.72C1593.14 1052.26 1571.33 1029.18 1543.54 1006.1L1519.59 986.439C1492.66 964.642 1480.26 950.11 1480.26 927.031C1480.26 908.653 1493.51 892.839 1519.17 892.839C1546.53 892.839 1563.64 906.516 1568.34 911.217L1583.73 883.009ZM1724.41 1156.97L1719.71 1129.19C1716.28 1131.33 1708.59 1135.17 1698.33 1135.17C1680.79 1135.17 1673.95 1126.63 1673.95 1097.56V983.875H1718.85L1723.13 955.666H1673.95V898.395H1643.17L1639.32 955.666L1614.52 960.795V983.875H1639.32V1102.26C1639.32 1147.57 1657.28 1165.95 1692.34 1165.95C1710.73 1165.95 1721.42 1159.11 1724.41 1156.97ZM1842.42 1045.42H1831.73C1785.13 1045.42 1746.22 1061.23 1746.22 1108.67C1746.22 1142.01 1769.73 1165.95 1800.95 1165.95C1827.03 1165.95 1839.43 1148.42 1844.13 1138.17H1844.99C1845.42 1148.42 1845.84 1154.83 1846.27 1160.82H1879.2C1878.34 1155.26 1876.63 1135.6 1876.63 1118.08V1024.48C1876.63 972.762 1854.4 950.538 1812.49 950.538C1779.57 950.538 1759.9 966.351 1750.92 975.327L1765.46 998.406C1773.15 991.568 1786.84 980.028 1807.36 980.028C1829.6 980.028 1842.42 991.14 1842.42 1025.76V1045.42ZM1842.42 1071.06V1116.37C1838.15 1122.78 1828.31 1136.46 1808.22 1136.46C1791.11 1136.46 1780.85 1125.77 1780.85 1104.83C1780.85 1082.18 1798.38 1072.77 1831.31 1071.49L1842.42 1071.06ZM2013.03 1045.42H2002.34C1955.73 1045.42 1916.82 1061.23 1916.82 1108.67C1916.82 1142.01 1940.34 1165.95 1971.55 1165.95C1997.64 1165.95 2010.04 1148.42 2014.74 1138.17H2015.6C2016.02 1148.42 2016.45 1154.83 2016.88 1160.82H2049.8C2048.95 1155.26 2047.24 1135.6 2047.24 1118.08V1024.48C2047.24 972.762 2025 950.538 1983.1 950.538C1950.17 950.538 1930.51 966.351 1921.53 975.327L1936.06 998.406C1943.76 991.568 1957.44 980.028 1977.97 980.028C2000.2 980.028 2013.03 991.14 2013.03 1025.76V1045.42ZM2013.03 1071.06V1116.37C2008.75 1122.78 1998.92 1136.46 1978.82 1136.46C1961.72 1136.46 1951.46 1125.77 1951.46 1104.83C1951.46 1082.18 1968.99 1072.77 2001.91 1071.49L2013.03 1071.06ZM2192.62 1156.97L2187.91 1129.19C2184.49 1131.33 2176.8 1135.17 2166.53 1135.17C2149 1135.17 2142.16 1126.63 2142.16 1097.56V983.875H2187.06L2191.33 955.666H2142.16V898.395H2111.37L2107.53 955.666L2082.73 960.795V983.875H2107.53V1102.26C2107.53 1147.57 2125.48 1165.95 2160.55 1165.95C2178.93 1165.95 2189.62 1159.11 2192.62 1156.97ZM2329.87 972.335C2323.03 965.497 2309.35 950.538 2277.71 950.538C2244.35 950.538 2218.27 973.19 2218.27 1003.53C2218.27 1031.74 2233.66 1048.41 2259.32 1064.65L2272.15 1072.77C2291.82 1085.17 2302.08 1092.01 2302.08 1111.67C2302.08 1124.92 2290.96 1135.17 2270.44 1135.17C2248.2 1135.17 2235.37 1121.92 2228.96 1115.09L2212.29 1142.44C2220.41 1150.99 2237.09 1165.95 2270.01 1165.95C2311.91 1165.95 2335.43 1140.73 2335.43 1108.25C2335.43 1077.9 2318.33 1061.23 2290.53 1044.57L2277.71 1036.87C2259.32 1025.76 2250.77 1017.21 2250.77 1001.83C2250.77 989.858 2260.6 980.028 2278.99 980.028C2298.23 980.028 2310.2 991.995 2314.91 997.124L2329.87 972.335ZM2453.02 981.31C2474.4 981.31 2483.8 995.414 2483.8 1028.75V1160.82H2518.44V1023.2C2518.44 1015.5 2518.01 1008.24 2516.73 1001.83C2524.42 992.85 2537.25 981.31 2556.07 981.31C2579.16 981.31 2591.56 995.414 2591.56 1028.75V1160.82H2626.19V1023.2C2626.19 974.472 2604.81 950.538 2563.76 950.538C2537.25 950.538 2518.44 966.351 2509.46 977.891C2500.05 959.513 2482.95 950.538 2459.86 950.538C2431.64 950.538 2414.11 969.343 2408.55 978.746H2407.69V955.666H2376.05V1160.82H2410.69V1002.68C2416.67 995.414 2429.93 981.31 2453.02 981.31ZM2668.52 1058.24C2668.52 1135.17 2703.16 1165.95 2748.48 1165.95C2793.38 1165.95 2830.58 1134.75 2830.58 1058.24C2830.58 982.592 2795.94 950.538 2750.62 950.538C2706.58 950.538 2668.52 982.592 2668.52 1058.24ZM2794.66 1058.24C2794.66 1112.52 2777.98 1135.17 2749.76 1135.17C2721.54 1135.17 2704.44 1112.52 2704.44 1058.24C2704.44 1003.96 2721.11 980.028 2749.34 980.028C2777.56 980.028 2794.66 1003.96 2794.66 1058.24ZM2946.03 1135.17C2922.08 1135.17 2900.7 1116.37 2900.7 1059.95C2900.7 1001.83 2925.93 981.31 2958 981.31C2970.4 981.31 2978.52 984.729 2984.51 988.576V1115.09C2979.81 1121.92 2967.83 1135.17 2946.03 1135.17ZM2986.65 1139.02H2987.5V1160.82H3019.14V854.801L2984.51 858.647V956.949C2978.1 954.384 2968.69 951.82 2955.43 951.82C2911.82 951.82 2864.78 978.319 2864.78 1061.23C2864.78 1136.03 2897.71 1165.95 2936.62 1165.95C2969.12 1165.95 2982.8 1145.43 2986.65 1139.02ZM3138.87 978.746C3160.68 978.746 3172.22 995.414 3172.22 1023.62C3172.22 1030.03 3171.79 1035.59 3171.37 1038.58H3096.96C3098.68 1000.12 3114.5 978.746 3138.87 978.746ZM3208.14 1141.58L3195.31 1117.22C3190.61 1121.92 3176.5 1135.17 3152.12 1135.17C3117.49 1135.17 3098.68 1112.52 3096.54 1064.65H3201.3C3202.58 1054.82 3203.86 1042.43 3203.86 1024.9C3203.86 975.754 3179.92 950.538 3141.01 950.538C3098.25 950.538 3062.76 983.02 3062.76 1055.68C3062.76 1133.04 3095.25 1165.95 3146.99 1165.95C3185.9 1165.95 3202.58 1147.57 3208.14 1141.58ZM3344.54 955.239C3341.12 953.957 3335.56 951.82 3325.72 951.82C3299.64 951.82 3288.52 967.206 3282.54 983.447H3281.68V955.666H3250.04V1160.82H3284.68V1010.37C3289.81 996.697 3301.35 982.592 3323.16 982.592C3332.57 982.592 3338.55 985.157 3340.26 986.012L3344.54 955.239ZM3451.01 980.028C3474.95 980.028 3486.5 994.132 3486.5 1028.75V1160.82H3521.13V1026.19C3521.13 970.625 3498.04 950.538 3461.27 950.538C3429.2 950.538 3410.81 971.48 3406.97 978.746H3406.11V955.666H3374.47V1160.82H3409.1V1002.68C3415.94 994.132 3430.06 980.028 3451.01 980.028ZM3590.4 906.088C3604.08 906.088 3613.49 895.831 3613.49 881.299C3613.49 867.195 3604.08 856.938 3590.4 856.938C3576.29 856.938 3566.88 867.195 3566.88 881.299C3566.88 895.831 3576.29 906.088 3590.4 906.088ZM3607.5 955.666H3572.87V1160.82H3607.5V955.666ZM3764 972.335C3757.16 965.497 3743.48 950.538 3711.84 950.538C3678.48 950.538 3652.4 973.19 3652.4 1003.53C3652.4 1031.74 3667.79 1048.41 3693.45 1064.65L3706.28 1072.77C3725.95 1085.17 3736.21 1092.01 3736.21 1111.67C3736.21 1124.92 3725.09 1135.17 3704.57 1135.17C3682.33 1135.17 3669.5 1121.92 3663.09 1115.09L3646.41 1142.44C3654.54 1150.99 3671.21 1165.95 3704.14 1165.95C3746.04 1165.95 3769.56 1140.73 3769.56 1108.25C3769.56 1077.9 3752.46 1061.23 3724.66 1044.57L3711.84 1036.87C3693.45 1025.76 3684.9 1017.21 3684.9 1001.83C3684.9 989.858 3694.73 980.028 3713.12 980.028C3732.36 980.028 3744.33 991.995 3749.04 997.124L3764 972.335ZM3827.71 906.088C3841.39 906.088 3850.8 895.831 3850.8 881.299C3850.8 867.195 3841.39 856.938 3827.71 856.938C3813.6 856.938 3804.19 867.195 3804.19 881.299C3804.19 895.831 3813.6 906.088 3827.71 906.088ZM3844.82 955.666H3810.18V1160.82H3844.82V955.666ZM3964.54 978.746C3986.35 978.746 3997.89 995.414 3997.89 1023.62C3997.89 1030.03 3997.46 1035.59 3997.04 1038.58H3922.64C3924.35 1000.12 3940.17 978.746 3964.54 978.746ZM4033.81 1141.58L4020.98 1117.22C4016.28 1121.92 4002.17 1135.17 3977.8 1135.17C3943.16 1135.17 3924.35 1112.52 3922.21 1064.65H4026.97C4028.25 1054.82 4029.53 1042.43 4029.53 1024.9C4029.53 975.754 4005.59 950.538 3966.68 950.538C3923.92 950.538 3888.43 983.02 3888.43 1055.68C3888.43 1133.04 3920.93 1165.95 3972.66 1165.95C4011.57 1165.95 4028.25 1147.57 4033.81 1141.58ZM4170.21 955.239C4166.79 953.957 4161.23 951.82 4151.4 951.82C4125.31 951.82 4114.2 967.206 4108.21 983.447H4107.35V955.666H4075.71V1160.82H4110.35V1010.37C4115.48 996.697 4127.02 982.592 4148.83 982.592C4158.24 982.592 4164.22 985.157 4165.93 986.012L4170.21 955.239ZM4311.31 1137.74H4312.17V1160.82H4343.81V955.666H4309.18V1112.52C4302.33 1121.07 4288.65 1135.17 4267.7 1135.17C4244.61 1135.17 4233.49 1121.5 4233.49 1087.73V955.666H4198.86V1090.3C4198.86 1145.86 4221.52 1165.95 4257.86 1165.95C4289.08 1165.95 4307.46 1145 4311.31 1137.74ZM4473.37 980.028C4497.31 980.028 4508.86 994.132 4508.86 1028.75V1160.82H4543.49V1026.19C4543.49 970.625 4520.4 950.538 4483.63 950.538C4451.56 950.538 4433.18 971.48 4429.33 978.746H4428.47V955.666H4396.83V1160.82H4431.47V1002.68C4438.31 994.132 4452.42 980.028 4473.37 980.028ZM4692.72 1019.35C4692.72 1048.84 4676.47 1060.38 4656.8 1060.38C4637.99 1060.38 4621.31 1048.84 4621.31 1019.35C4621.31 989.858 4637.99 978.319 4657.66 978.319C4676.47 978.319 4692.72 989.858 4692.72 1019.35ZM4743.18 1176.63C4743.18 1137.74 4714.1 1122.35 4675.19 1122.35H4649.11C4634.14 1122.35 4628.16 1116.37 4628.16 1107.82C4628.16 1097.14 4637.99 1091.58 4644.83 1088.59C4648.25 1089.01 4651.67 1089.01 4655.52 1089.01C4695.71 1089.01 4726.5 1062.94 4726.5 1019.35C4726.5 1005.67 4723.08 992.85 4716.67 982.592H4742.32L4747.03 955.666H4684.6C4676.05 952.247 4667.07 950.538 4657.23 950.538C4618.75 950.538 4587.53 973.19 4587.53 1019.35C4587.53 1051.83 4601.65 1072.35 4622.6 1082.18V1083.03C4617.47 1085.6 4597.8 1094.14 4597.8 1116.37C4597.8 1129.19 4602.5 1138.59 4611.05 1145V1145.86C4601.65 1150.99 4576.84 1165.52 4576.84 1195.86C4576.84 1231.34 4600.36 1251.43 4643.98 1251.43C4704.69 1251.43 4743.18 1220.65 4743.18 1176.63ZM4646.54 1221.94C4622.17 1221.94 4610.2 1210.82 4610.2 1189.03C4610.2 1168.51 4621.31 1158.68 4631.15 1153.12C4635.85 1153.98 4641.41 1154.41 4646.97 1154.41H4673.05C4694 1154.41 4707.69 1162.1 4707.69 1181.76C4707.69 1202.7 4688.45 1221.94 4646.54 1221.94Z" fill="white"/>
</svg>
